%
M48
M72
T01C0.0138
T02C0.0315
T03C0.0354
T04C0.0394
T05C0.0400
T06C0.0512
T07C0.0669
T08C0.0748
T09C0.1575
%
T01
X1292Y1253
X16323Y4333
X21783Y2413
X18003Y7753
X18003Y8113
X17763Y7393
X17283Y7393
X18183Y9373
X17643Y10573
X16923Y12013
X16683Y11533
X16683Y11173
X15963Y10993
X16203Y9973
X14943Y8893
X15183Y12553
X16623Y12673
X17103Y12553
X20943Y14413
X7623Y10273
X9963Y10513
X9783Y13933
X12003Y7753
X13563Y16753
X15063Y27793
X1292Y30387
X22946Y30387
T02
X1517Y28536
X1517Y24741
X1517Y21036
X1517Y17241
X1517Y13536
X1517Y9741
X1517Y6036
X1517Y2241
X9017Y6036
X9017Y2241
X14225Y1517
X18021Y1517
X18001Y12934
X16517Y17241
X16517Y21036
X16910Y23166
X16910Y26962
X17040Y28379
X16725Y28851
X16410Y28379
X17355Y28851
X17670Y28379
X9017Y28536
X9017Y24741
X9017Y21036
X9017Y17241
X9017Y13536
X9017Y9741
X14206Y12934
T03
X4517Y29599
X7517Y29599
X22946Y17320
X22946Y14320
X22946Y12989
X22946Y9989
X17828Y13926
X17828Y16926
X7517Y22119
X4517Y22119
X4517Y14639
X4517Y7158
X7517Y7158
X9635Y8733
X12635Y8733
X7517Y14639
T04
X4540Y6139
X5540Y6139
X12040Y6139
X13040Y6139
X19540Y6139
X20540Y6139
X20540Y13639
X19540Y13639
X13040Y13639
X12040Y13639
X5540Y13639
X4540Y13639
X4540Y21139
X5540Y21139
X12040Y21139
X13040Y21139
X19540Y21139
X20540Y21139
X20540Y28639
X19540Y28639
X13040Y28639
X12040Y28639
X5540Y28639
X4540Y28639
T05
X8528Y29599
X9528Y29599
X10528Y29599
X11528Y29599
X12710Y29599
X13710Y29599
X14710Y29599
X20485Y8836
X20485Y7056
X23045Y8836
X23045Y7056
T06
X4056Y2367
X4040Y2139
X6025Y2564
X6540Y3139
X11556Y2367
X11540Y2139
X13525Y2564
X14040Y3139
X19056Y2367
X19040Y2139
X21025Y2564
X21540Y3139
X19040Y9639
X19056Y9867
X14040Y10639
X13525Y10064
X11556Y9867
X11540Y9639
X6540Y10639
X6025Y10064
X4056Y9867
X4040Y9639
X4040Y17139
X4056Y17367
X6025Y17564
X6540Y18139
X11556Y17367
X11540Y17139
X13525Y17564
X14040Y18139
X19056Y17367
X19040Y17139
X21025Y17564
X21540Y18139
X19040Y24639
X19056Y24867
X14040Y25639
X13525Y25064
X11556Y24867
X11540Y24639
X6540Y25639
X6025Y25064
X4056Y24867
X4040Y24639
X21025Y25064
X21540Y25639
X21540Y10639
X21025Y10064
T07
X3040Y4139
X7040Y4139
X10540Y4139
X14540Y4139
X18040Y4139
X22040Y4139
X22040Y11639
X18040Y11639
X14540Y11639
X10540Y11639
X7040Y11639
X3040Y11639
X3040Y19139
X7040Y19139
X10540Y19139
X14540Y19139
X18040Y19139
X22040Y19139
X22040Y26639
X18040Y26639
X14540Y26639
X10540Y26639
X7040Y26639
X3040Y26639
T08
X15603Y30387
X18477Y30387
T09
X5040Y4139
X12540Y4139
X20040Y4139
X20040Y11639
X12540Y11639
X5040Y11639
X5040Y19139
X12540Y19139
X20040Y19139
X20040Y26639
X12540Y26639
X5040Y26639
M30
