  0
SECTION
  2
HEADER
  9
$ACADVER
  1
AC1009
  9
$EXTMIN
 10
0.0
 20
0.0
 30
0.0
  9
$EXTMAX
 10
1000.0
 20
1000.0
 30
0.0
  9
$FILLMODE
 70
 0
  9
$SPLFRAME
 70
 1
  0
ENDSEC
  0
SECTION
  2
TABLES
  0
TABLE
  2
LAYER
 70
1
  0
LAYER
  2
0
 70
     0
 62
     7
  6
CONTINUOUS
  0
ENDTAB
  0
ENDSEC
  0
SECTION
  2
ENTITIES
  0
LINE
  8
0
 62
     0
 10
59.2448
 20
80.2802
 30
0.0
 11
59.4018
 21
80.2749
 31
0.0
  0
LINE
  8
0
 62
     0
 10
59.4018
 20
80.2749
 30
0.0
 11
59.5574
 21
80.2569
 31
0.0
  0
LINE
  8
0
 62
     0
 10
59.5574
 20
80.2569
 30
0.0
 11
59.7119
 21
80.2252
 31
0.0
  0
LINE
  8
0
 62
     0
 10
59.7119
 20
80.2252
 30
0.0
 11
59.8632
 21
80.1839
 31
0.0
  0
LINE
  8
0
 62
     0
 10
59.8632
 20
80.1839
 30
0.0
 11
60.0107
 21
80.1289
 31
0.0
  0
LINE
  8
0
 62
     0
 10
60.0107
 20
80.1289
 30
0.0
 11
60.1528
 21
80.064
 31
0.0
  0
LINE
  8
0
 62
     0
 10
60.1528
 20
80.064
 30
0.0
 11
60.289
 21
79.9867
 31
0.0
  0
LINE
  8
0
 62
     0
 10
60.289
 20
79.9867
 30
0.0
 11
60.4203
 21
79.8999
 31
0.0
  0
LINE
  8
0
 62
     0
 10
60.4203
 20
79.8999
 30
0.0
 11
60.5441
 21
79.8022
 31
0.0
  0
LINE
  8
0
 62
     0
 10
60.5441
 20
79.8022
 30
0.0
 11
60.6598
 21
79.696
 31
0.0
  0
LINE
  8
0
 62
     0
 10
60.6598
 20
79.696
 30
0.0
 11
60.766
 21
79.5803
 31
0.0
  0
LINE
  8
0
 62
     0
 10
60.766
 20
79.5803
 30
0.0
 11
60.8637
 21
79.4561
 31
0.0
  0
LINE
  8
0
 62
     0
 10
60.8637
 20
79.4561
 30
0.0
 11
60.9505
 21
79.3253
 31
0.0
  0
LINE
  8
0
 62
     0
 10
60.9505
 20
79.3253
 30
0.0
 11
61.0277
 21
79.1891
 31
0.0
  0
LINE
  8
0
 62
     0
 10
61.0277
 20
79.1891
 30
0.0
 11
61.0926
 21
79.0469
 31
0.0
  0
LINE
  8
0
 62
     0
 10
61.0926
 20
79.0469
 30
0.0
 11
61.1477
 21
78.8995
 31
0.0
  0
LINE
  8
0
 62
     0
 10
61.1477
 20
78.8995
 30
0.0
 11
61.1904
 21
78.7481
 31
0.0
  0
LINE
  8
0
 62
     0
 10
61.1904
 20
78.7481
 30
0.0
 11
61.2207
 21
78.5936
 31
0.0
  0
LINE
  8
0
 62
     0
 10
61.2207
 20
78.5936
 30
0.0
 11
61.2387
 21
78.438
 31
0.0
  0
LINE
  8
0
 62
     0
 10
61.2387
 20
78.438
 30
0.0
 11
61.244
 21
78.2807
 31
0.0
  0
LINE
  8
0
 62
     0
 10
61.244
 20
78.2807
 30
0.0
 11
61.2454
 21
2.07946
 31
0.0
  0
LINE
  8
0
 62
     0
 10
61.2454
 20
2.07946
 30
0.0
 11
61.2387
 21
1.92374
 31
0.0
  0
LINE
  8
0
 62
     0
 10
61.2387
 20
1.92374
 30
0.0
 11
61.2207
 21
1.76802
 31
0.0
  0
LINE
  8
0
 62
     0
 10
61.2207
 20
1.76802
 30
0.0
 11
61.1904
 21
1.61368
 31
0.0
  0
LINE
  8
0
 62
     0
 10
61.1904
 20
1.61368
 30
0.0
 11
61.1477
 21
1.4621
 31
0.0
  0
LINE
  8
0
 62
     0
 10
61.1477
 20
1.4621
 30
0.0
 11
61.0926
 21
1.31465
 31
0.0
  0
LINE
  8
0
 62
     0
 10
61.0926
 20
1.31465
 30
0.0
 11
61.0277
 21
1.17271
 31
0.0
  0
LINE
  8
0
 62
     0
 10
61.0277
 20
1.17271
 30
0.0
 11
60.9505
 21
1.03628
 31
0.0
  0
LINE
  8
0
 62
     0
 10
60.9505
 20
1.03628
 30
0.0
 11
60.8637
 21
0.905372
 31
0.0
  0
LINE
  8
0
 62
     0
 10
60.8637
 20
0.905372
 30
0.0
 11
60.766
 21
0.781346
 31
0.0
  0
LINE
  8
0
 62
     0
 10
60.766
 20
0.781346
 30
0.0
 11
60.6598
 21
0.665593
 31
0.0
  0
LINE
  8
0
 62
     0
 10
60.6598
 20
0.665593
 30
0.0
 11
60.5441
 21
0.559484
 31
0.0
  0
LINE
  8
0
 62
     0
 10
60.5441
 20
0.559484
 30
0.0
 11
60.4203
 21
0.461641
 31
0.0
  0
LINE
  8
0
 62
     0
 10
60.4203
 20
0.461641
 30
0.0
 11
60.289
 21
0.374826
 31
0.0
  0
LINE
  8
0
 62
     0
 10
60.289
 20
0.374826
 30
0.0
 11
60.1528
 21
0.297656
 31
0.0
  0
LINE
  8
0
 62
     0
 10
60.1528
 20
0.297656
 30
0.0
 11
60.0107
 21
0.232888
 31
0.0
  0
LINE
  8
0
 62
     0
 10
60.0107
 20
0.232888
 30
0.0
 11
59.8632
 21
0.177767
 31
0.0
  0
LINE
  8
0
 62
     0
 10
59.8632
 20
0.177767
 30
0.0
 11
59.7119
 21
0.135048
 31
0.0
  0
LINE
  8
0
 62
     0
 10
59.7119
 20
0.135048
 30
0.0
 11
59.5574
 21
0.104731
 31
0.0
  0
LINE
  8
0
 62
     0
 10
59.5574
 20
0.104731
 30
0.0
 11
59.4018
 21
0.0868165
 31
0.0
  0
LINE
  8
0
 62
     0
 10
59.4018
 20
0.0868165
 30
0.0
 11
59.2448
 21
0.0813043
 31
0.0
  0
LINE
  8
0
 62
     0
 10
59.2448
 20
0.0813043
 30
0.0
 11
2.09462
 21
0.0799264
 31
0.0
  0
LINE
  8
0
 62
     0
 10
2.09462
 20
0.0799264
 30
0.0
 11
1.93752
 21
0.0868165
 31
0.0
  0
LINE
  8
0
 62
     0
 10
1.93752
 20
0.0868165
 30
0.0
 11
1.7818
 21
0.104731
 31
0.0
  0
LINE
  8
0
 62
     0
 10
1.7818
 20
0.104731
 30
0.0
 11
1.62746
 21
0.135048
 31
0.0
  0
LINE
  8
0
 62
     0
 10
1.62746
 20
0.135048
 30
0.0
 11
1.47588
 21
0.177767
 31
0.0
  0
LINE
  8
0
 62
     0
 10
1.47588
 20
0.177767
 30
0.0
 11
1.32843
 21
0.232888
 31
0.0
  0
LINE
  8
0
 62
     0
 10
1.32843
 20
0.232888
 30
0.0
 11
1.18649
 21
0.297656
 31
0.0
  0
LINE
  8
0
 62
     0
 10
1.18649
 20
0.297656
 30
0.0
 11
1.05006
 21
0.374826
 31
0.0
  0
LINE
  8
0
 62
     0
 10
1.05006
 20
0.374826
 30
0.0
 11
0.919152
 21
0.461641
 31
0.0
  0
LINE
  8
0
 62
     0
 10
0.919152
 20
0.461641
 30
0.0
 11
0.795129
 21
0.559484
 31
0.0
  0
LINE
  8
0
 62
     0
 10
0.795129
 20
0.559484
 30
0.0
 11
0.679372
 21
0.665593
 31
0.0
  0
LINE
  8
0
 62
     0
 10
0.679372
 20
0.665593
 30
0.0
 11
0.573264
 21
0.781346
 31
0.0
  0
LINE
  8
0
 62
     0
 10
0.573264
 20
0.781346
 30
0.0
 11
0.475424
 21
0.905372
 31
0.0
  0
LINE
  8
0
 62
     0
 10
0.475424
 20
0.905372
 30
0.0
 11
0.388606
 21
1.03628
 31
0.0
  0
LINE
  8
0
 62
     0
 10
0.388606
 20
1.03628
 30
0.0
 11
0.311437
 21
1.17271
 31
0.0
  0
LINE
  8
0
 62
     0
 10
0.311437
 20
1.17271
 30
0.0
 11
0.246669
 21
1.31465
 31
0.0
  0
LINE
  8
0
 62
     0
 10
0.246669
 20
1.31465
 30
0.0
 11
0.191547
 21
1.4621
 31
0.0
  0
LINE
  8
0
 62
     0
 10
0.191547
 20
1.4621
 30
0.0
 11
0.150206
 21
1.61368
 31
0.0
  0
LINE
  8
0
 62
     0
 10
0.150206
 20
1.61368
 30
0.0
 11
0.118511
 21
1.76802
 31
0.0
  0
LINE
  8
0
 62
     0
 10
0.118511
 20
1.76802
 30
0.0
 11
0.100597
 21
1.92374
 31
0.0
  0
LINE
  8
0
 62
     0
 10
0.100597
 20
1.92374
 30
0.0
 11
0.0937066
 21
2.07946
 31
0.0
  0
LINE
  8
0
 62
     0
 10
0.0937066
 20
2.07946
 30
0.0
 11
0.0950846
 21
78.2807
 31
0.0
  0
LINE
  8
0
 62
     0
 10
0.0950846
 20
78.2807
 30
0.0
 11
0.100597
 21
78.438
 31
0.0
  0
LINE
  8
0
 62
     0
 10
0.100597
 20
78.438
 30
0.0
 11
0.118511
 21
78.5936
 31
0.0
  0
LINE
  8
0
 62
     0
 10
0.118511
 20
78.5936
 30
0.0
 11
0.150206
 21
78.7481
 31
0.0
  0
LINE
  8
0
 62
     0
 10
0.150206
 20
78.7481
 30
0.0
 11
0.191547
 21
78.8995
 31
0.0
  0
LINE
  8
0
 62
     0
 10
0.191547
 20
78.8995
 30
0.0
 11
0.246669
 21
79.0469
 31
0.0
  0
LINE
  8
0
 62
     0
 10
0.246669
 20
79.0469
 30
0.0
 11
0.311437
 21
79.1891
 31
0.0
  0
LINE
  8
0
 62
     0
 10
0.311437
 20
79.1891
 30
0.0
 11
0.388606
 21
79.3253
 31
0.0
  0
LINE
  8
0
 62
     0
 10
0.388606
 20
79.3253
 30
0.0
 11
0.475424
 21
79.4561
 31
0.0
  0
LINE
  8
0
 62
     0
 10
0.475424
 20
79.4561
 30
0.0
 11
0.573264
 21
79.5803
 31
0.0
  0
LINE
  8
0
 62
     0
 10
0.573264
 20
79.5803
 30
0.0
 11
0.679372
 21
79.696
 31
0.0
  0
LINE
  8
0
 62
     0
 10
0.679372
 20
79.696
 30
0.0
 11
0.795129
 21
79.8022
 31
0.0
  0
LINE
  8
0
 62
     0
 10
0.795129
 20
79.8022
 30
0.0
 11
0.919152
 21
79.8999
 31
0.0
  0
LINE
  8
0
 62
     0
 10
0.919152
 20
79.8999
 30
0.0
 11
1.05006
 21
79.9867
 31
0.0
  0
LINE
  8
0
 62
     0
 10
1.05006
 20
79.9867
 30
0.0
 11
1.18649
 21
80.064
 31
0.0
  0
LINE
  8
0
 62
     0
 10
1.18649
 20
80.064
 30
0.0
 11
1.32843
 21
80.1289
 31
0.0
  0
LINE
  8
0
 62
     0
 10
1.32843
 20
80.1289
 30
0.0
 11
1.47588
 21
80.1839
 31
0.0
  0
LINE
  8
0
 62
     0
 10
1.47588
 20
80.1839
 30
0.0
 11
1.62746
 21
80.2252
 31
0.0
  0
LINE
  8
0
 62
     0
 10
1.62746
 20
80.2252
 30
0.0
 11
1.7818
 21
80.2569
 31
0.0
  0
LINE
  8
0
 62
     0
 10
1.7818
 20
80.2569
 30
0.0
 11
1.93752
 21
80.2749
 31
0.0
  0
LINE
  8
0
 62
     0
 10
1.93752
 20
80.2749
 30
0.0
 11
2.09462
 21
80.2816
 31
0.0
  0
LINE
  8
0
 62
     0
 10
2.09462
 20
80.2816
 30
0.0
 11
59.2448
 21
80.2802
 31
0.0
  0
LINE
  8
0
 62
     0
 10
4.6192
 20
18.6063
 30
0.0
 11
4.6192
 21
17.6058
 31
0.0
  0
LINE
  8
0
 62
     0
 10
4.6192
 20
17.6058
 30
0.0
 11
3.81854
 21
17.6058
 31
0.0
  0
LINE
  8
0
 62
     0
 10
3.81854
 20
17.6058
 30
0.0
 11
3.81854
 21
14.5066
 31
0.0
  0
LINE
  8
0
 62
     0
 10
3.81854
 20
14.5066
 30
0.0
 11
4.6192
 21
14.5066
 31
0.0
  0
LINE
  8
0
 62
     0
 10
4.6192
 20
14.5066
 30
0.0
 11
4.6192
 21
8.70507
 31
0.0
  0
LINE
  8
0
 62
     0
 10
4.6192
 20
8.70507
 30
0.0
 11
3.81854
 21
8.70507
 31
0.0
  0
LINE
  8
0
 62
     0
 10
3.81854
 20
8.70507
 30
0.0
 11
3.81854
 21
5.60585
 31
0.0
  0
LINE
  8
0
 62
     0
 10
3.81854
 20
5.60585
 30
0.0
 11
4.6192
 21
5.60585
 31
0.0
  0
LINE
  8
0
 62
     0
 10
4.6192
 20
5.60585
 30
0.0
 11
4.6192
 21
4.60541
 31
0.0
  0
LINE
  8
0
 62
     0
 10
4.6192
 20
4.60541
 30
0.0
 11
18.6201
 21
4.60541
 31
0.0
  0
LINE
  8
0
 62
     0
 10
18.6201
 20
4.60541
 30
0.0
 11
18.6201
 21
5.60585
 31
0.0
  0
LINE
  8
0
 62
     0
 10
18.6201
 20
5.60585
 30
0.0
 11
19.4193
 21
5.60585
 31
0.0
  0
LINE
  8
0
 62
     0
 10
19.4193
 20
5.60585
 30
0.0
 11
19.4193
 21
8.70507
 31
0.0
  0
LINE
  8
0
 62
     0
 10
19.4193
 20
8.70507
 30
0.0
 11
18.6201
 21
8.70507
 31
0.0
  0
LINE
  8
0
 62
     0
 10
18.6201
 20
8.70507
 30
0.0
 11
18.6201
 21
14.5066
 31
0.0
  0
LINE
  8
0
 62
     0
 10
18.6201
 20
14.5066
 30
0.0
 11
19.4193
 21
14.5066
 31
0.0
  0
LINE
  8
0
 62
     0
 10
19.4193
 20
14.5066
 30
0.0
 11
19.4193
 21
17.6058
 31
0.0
  0
LINE
  8
0
 62
     0
 10
19.4193
 20
17.6058
 30
0.0
 11
18.6201
 21
17.6058
 31
0.0
  0
LINE
  8
0
 62
     0
 10
18.6201
 20
17.6058
 30
0.0
 11
18.6201
 21
18.6063
 31
0.0
  0
LINE
  8
0
 62
     0
 10
18.6201
 20
18.6063
 30
0.0
 11
4.6192
 21
18.6063
 31
0.0
  0
LINE
  8
0
 62
     0
 10
23.6692
 20
18.6063
 30
0.0
 11
23.6692
 21
17.6058
 31
0.0
  0
LINE
  8
0
 62
     0
 10
23.6692
 20
17.6058
 30
0.0
 11
22.8699
 21
17.6058
 31
0.0
  0
LINE
  8
0
 62
     0
 10
22.8699
 20
17.6058
 30
0.0
 11
22.8699
 21
14.5066
 31
0.0
  0
LINE
  8
0
 62
     0
 10
22.8699
 20
14.5066
 30
0.0
 11
23.6692
 21
14.5066
 31
0.0
  0
LINE
  8
0
 62
     0
 10
23.6692
 20
14.5066
 30
0.0
 11
23.6692
 21
8.70507
 31
0.0
  0
LINE
  8
0
 62
     0
 10
23.6692
 20
8.70507
 30
0.0
 11
22.8699
 21
8.70507
 31
0.0
  0
LINE
  8
0
 62
     0
 10
22.8699
 20
8.70507
 30
0.0
 11
22.8699
 21
5.60585
 31
0.0
  0
LINE
  8
0
 62
     0
 10
22.8699
 20
5.60585
 30
0.0
 11
23.6692
 21
5.60585
 31
0.0
  0
LINE
  8
0
 62
     0
 10
23.6692
 20
5.60585
 30
0.0
 11
23.6692
 21
4.60541
 31
0.0
  0
LINE
  8
0
 62
     0
 10
23.6692
 20
4.60541
 30
0.0
 11
37.67
 21
4.60541
 31
0.0
  0
LINE
  8
0
 62
     0
 10
37.67
 20
4.60541
 30
0.0
 11
37.67
 21
5.60585
 31
0.0
  0
LINE
  8
0
 62
     0
 10
37.67
 20
5.60585
 30
0.0
 11
38.4694
 21
5.60585
 31
0.0
  0
LINE
  8
0
 62
     0
 10
38.4694
 20
5.60585
 30
0.0
 11
38.4694
 21
8.70507
 31
0.0
  0
LINE
  8
0
 62
     0
 10
38.4694
 20
8.70507
 30
0.0
 11
37.67
 21
8.70507
 31
0.0
  0
LINE
  8
0
 62
     0
 10
37.67
 20
8.70507
 30
0.0
 11
37.67
 21
14.5066
 31
0.0
  0
LINE
  8
0
 62
     0
 10
37.67
 20
14.5066
 30
0.0
 11
38.4694
 21
14.5066
 31
0.0
  0
LINE
  8
0
 62
     0
 10
38.4694
 20
14.5066
 30
0.0
 11
38.4694
 21
17.6058
 31
0.0
  0
LINE
  8
0
 62
     0
 10
38.4694
 20
17.6058
 30
0.0
 11
37.67
 21
17.6058
 31
0.0
  0
LINE
  8
0
 62
     0
 10
37.67
 20
17.6058
 30
0.0
 11
37.67
 21
18.6063
 31
0.0
  0
LINE
  8
0
 62
     0
 10
37.67
 20
18.6063
 30
0.0
 11
23.6692
 21
18.6063
 31
0.0
  0
LINE
  8
0
 62
     0
 10
42.7193
 20
18.6063
 30
0.0
 11
42.7193
 21
17.6058
 31
0.0
  0
LINE
  8
0
 62
     0
 10
42.7193
 20
17.6058
 30
0.0
 11
41.9199
 21
17.6058
 31
0.0
  0
LINE
  8
0
 62
     0
 10
41.9199
 20
17.6058
 30
0.0
 11
41.9199
 21
14.5066
 31
0.0
  0
LINE
  8
0
 62
     0
 10
41.9199
 20
14.5066
 30
0.0
 11
42.7193
 21
14.5066
 31
0.0
  0
LINE
  8
0
 62
     0
 10
42.7193
 20
14.5066
 30
0.0
 11
42.7193
 21
8.70507
 31
0.0
  0
LINE
  8
0
 62
     0
 10
42.7193
 20
8.70507
 30
0.0
 11
41.9199
 21
8.70507
 31
0.0
  0
LINE
  8
0
 62
     0
 10
41.9199
 20
8.70507
 30
0.0
 11
41.9199
 21
5.60585
 31
0.0
  0
LINE
  8
0
 62
     0
 10
41.9199
 20
5.60585
 30
0.0
 11
42.7193
 21
5.60585
 31
0.0
  0
LINE
  8
0
 62
     0
 10
42.7193
 20
5.60585
 30
0.0
 11
42.7193
 21
4.60541
 31
0.0
  0
LINE
  8
0
 62
     0
 10
42.7193
 20
4.60541
 30
0.0
 11
56.72
 21
4.60541
 31
0.0
  0
LINE
  8
0
 62
     0
 10
56.72
 20
4.60541
 30
0.0
 11
56.72
 21
5.60585
 31
0.0
  0
LINE
  8
0
 62
     0
 10
56.72
 20
5.60585
 30
0.0
 11
57.5194
 21
5.60585
 31
0.0
  0
LINE
  8
0
 62
     0
 10
57.5194
 20
5.60585
 30
0.0
 11
57.5194
 21
8.70507
 31
0.0
  0
LINE
  8
0
 62
     0
 10
57.5194
 20
8.70507
 30
0.0
 11
56.72
 21
8.70507
 31
0.0
  0
LINE
  8
0
 62
     0
 10
56.72
 20
8.70507
 30
0.0
 11
56.72
 21
14.5066
 31
0.0
  0
LINE
  8
0
 62
     0
 10
56.72
 20
14.5066
 30
0.0
 11
57.5194
 21
14.5066
 31
0.0
  0
LINE
  8
0
 62
     0
 10
57.5194
 20
14.5066
 30
0.0
 11
57.5194
 21
17.6058
 31
0.0
  0
LINE
  8
0
 62
     0
 10
57.5194
 20
17.6058
 30
0.0
 11
56.72
 21
17.6058
 31
0.0
  0
LINE
  8
0
 62
     0
 10
56.72
 20
17.6058
 30
0.0
 11
56.72
 21
18.6063
 31
0.0
  0
LINE
  8
0
 62
     0
 10
56.72
 20
18.6063
 30
0.0
 11
42.7193
 21
18.6063
 31
0.0
  0
LINE
  8
0
 62
     0
 10
4.6192
 20
37.6562
 30
0.0
 11
4.6192
 21
36.6557
 31
0.0
  0
LINE
  8
0
 62
     0
 10
4.6192
 20
36.6557
 30
0.0
 11
3.81854
 21
36.6557
 31
0.0
  0
LINE
  8
0
 62
     0
 10
3.81854
 20
36.6557
 30
0.0
 11
3.81854
 21
33.5552
 31
0.0
  0
LINE
  8
0
 62
     0
 10
3.81854
 20
33.5552
 30
0.0
 11
4.6192
 21
33.5552
 31
0.0
  0
LINE
  8
0
 62
     0
 10
4.6192
 20
33.5552
 30
0.0
 11
4.6192
 21
27.7551
 31
0.0
  0
LINE
  8
0
 62
     0
 10
4.6192
 20
27.7551
 30
0.0
 11
3.81854
 21
27.7551
 31
0.0
  0
LINE
  8
0
 62
     0
 10
3.81854
 20
27.7551
 30
0.0
 11
3.81854
 21
24.6559
 31
0.0
  0
LINE
  8
0
 62
     0
 10
3.81854
 20
24.6559
 30
0.0
 11
4.6192
 21
24.6559
 31
0.0
  0
LINE
  8
0
 62
     0
 10
4.6192
 20
24.6559
 30
0.0
 11
4.6192
 21
23.6554
 31
0.0
  0
LINE
  8
0
 62
     0
 10
4.6192
 20
23.6554
 30
0.0
 11
18.6201
 21
23.6554
 31
0.0
  0
LINE
  8
0
 62
     0
 10
18.6201
 20
23.6554
 30
0.0
 11
18.6201
 21
24.6559
 31
0.0
  0
LINE
  8
0
 62
     0
 10
18.6201
 20
24.6559
 30
0.0
 11
19.4193
 21
24.6559
 31
0.0
  0
LINE
  8
0
 62
     0
 10
19.4193
 20
24.6559
 30
0.0
 11
19.4193
 21
27.7551
 31
0.0
  0
LINE
  8
0
 62
     0
 10
19.4193
 20
27.7551
 30
0.0
 11
18.6201
 21
27.7551
 31
0.0
  0
LINE
  8
0
 62
     0
 10
18.6201
 20
27.7551
 30
0.0
 11
18.6201
 21
33.5552
 31
0.0
  0
LINE
  8
0
 62
     0
 10
18.6201
 20
33.5552
 30
0.0
 11
19.4193
 21
33.5552
 31
0.0
  0
LINE
  8
0
 62
     0
 10
19.4193
 20
33.5552
 30
0.0
 11
19.4193
 21
36.6557
 31
0.0
  0
LINE
  8
0
 62
     0
 10
19.4193
 20
36.6557
 30
0.0
 11
18.6201
 21
36.6557
 31
0.0
  0
LINE
  8
0
 62
     0
 10
18.6201
 20
36.6557
 30
0.0
 11
18.6201
 21
37.6562
 31
0.0
  0
LINE
  8
0
 62
     0
 10
18.6201
 20
37.6562
 30
0.0
 11
4.6192
 21
37.6562
 31
0.0
  0
LINE
  8
0
 62
     0
 10
23.6692
 20
37.6562
 30
0.0
 11
23.6692
 21
36.6557
 31
0.0
  0
LINE
  8
0
 62
     0
 10
23.6692
 20
36.6557
 30
0.0
 11
22.8699
 21
36.6557
 31
0.0
  0
LINE
  8
0
 62
     0
 10
22.8699
 20
36.6557
 30
0.0
 11
22.8699
 21
33.5552
 31
0.0
  0
LINE
  8
0
 62
     0
 10
22.8699
 20
33.5552
 30
0.0
 11
23.6692
 21
33.5552
 31
0.0
  0
LINE
  8
0
 62
     0
 10
23.6692
 20
33.5552
 30
0.0
 11
23.6692
 21
27.7551
 31
0.0
  0
LINE
  8
0
 62
     0
 10
23.6692
 20
27.7551
 30
0.0
 11
22.8699
 21
27.7551
 31
0.0
  0
LINE
  8
0
 62
     0
 10
22.8699
 20
27.7551
 30
0.0
 11
22.8699
 21
24.6559
 31
0.0
  0
LINE
  8
0
 62
     0
 10
22.8699
 20
24.6559
 30
0.0
 11
23.6692
 21
24.6559
 31
0.0
  0
LINE
  8
0
 62
     0
 10
23.6692
 20
24.6559
 30
0.0
 11
23.6692
 21
23.6554
 31
0.0
  0
LINE
  8
0
 62
     0
 10
23.6692
 20
23.6554
 30
0.0
 11
37.67
 21
23.6554
 31
0.0
  0
LINE
  8
0
 62
     0
 10
37.67
 20
23.6554
 30
0.0
 11
37.67
 21
24.6559
 31
0.0
  0
LINE
  8
0
 62
     0
 10
37.67
 20
24.6559
 30
0.0
 11
38.4694
 21
24.6559
 31
0.0
  0
LINE
  8
0
 62
     0
 10
38.4694
 20
24.6559
 30
0.0
 11
38.4694
 21
27.7551
 31
0.0
  0
LINE
  8
0
 62
     0
 10
38.4694
 20
27.7551
 30
0.0
 11
37.67
 21
27.7551
 31
0.0
  0
LINE
  8
0
 62
     0
 10
37.67
 20
27.7551
 30
0.0
 11
37.67
 21
33.5552
 31
0.0
  0
LINE
  8
0
 62
     0
 10
37.67
 20
33.5552
 30
0.0
 11
38.4694
 21
33.5552
 31
0.0
  0
LINE
  8
0
 62
     0
 10
38.4694
 20
33.5552
 30
0.0
 11
38.4694
 21
36.6557
 31
0.0
  0
LINE
  8
0
 62
     0
 10
38.4694
 20
36.6557
 30
0.0
 11
37.67
 21
36.6557
 31
0.0
  0
LINE
  8
0
 62
     0
 10
37.67
 20
36.6557
 30
0.0
 11
37.67
 21
37.6562
 31
0.0
  0
LINE
  8
0
 62
     0
 10
37.67
 20
37.6562
 30
0.0
 11
23.6692
 21
37.6562
 31
0.0
  0
LINE
  8
0
 62
     0
 10
42.7193
 20
37.6562
 30
0.0
 11
42.7193
 21
36.6557
 31
0.0
  0
LINE
  8
0
 62
     0
 10
42.7193
 20
36.6557
 30
0.0
 11
41.9199
 21
36.6557
 31
0.0
  0
LINE
  8
0
 62
     0
 10
41.9199
 20
36.6557
 30
0.0
 11
41.9199
 21
33.5552
 31
0.0
  0
LINE
  8
0
 62
     0
 10
41.9199
 20
33.5552
 30
0.0
 11
42.7193
 21
33.5552
 31
0.0
  0
LINE
  8
0
 62
     0
 10
42.7193
 20
33.5552
 30
0.0
 11
42.7193
 21
27.7551
 31
0.0
  0
LINE
  8
0
 62
     0
 10
42.7193
 20
27.7551
 30
0.0
 11
41.9199
 21
27.7551
 31
0.0
  0
LINE
  8
0
 62
     0
 10
41.9199
 20
27.7551
 30
0.0
 11
41.9199
 21
24.6559
 31
0.0
  0
LINE
  8
0
 62
     0
 10
41.9199
 20
24.6559
 30
0.0
 11
42.7193
 21
24.6559
 31
0.0
  0
LINE
  8
0
 62
     0
 10
42.7193
 20
24.6559
 30
0.0
 11
42.7193
 21
23.6554
 31
0.0
  0
LINE
  8
0
 62
     0
 10
42.7193
 20
23.6554
 30
0.0
 11
56.72
 21
23.6554
 31
0.0
  0
LINE
  8
0
 62
     0
 10
56.72
 20
23.6554
 30
0.0
 11
56.72
 21
24.6559
 31
0.0
  0
LINE
  8
0
 62
     0
 10
56.72
 20
24.6559
 30
0.0
 11
57.5194
 21
24.6559
 31
0.0
  0
LINE
  8
0
 62
     0
 10
57.5194
 20
24.6559
 30
0.0
 11
57.5194
 21
27.7551
 31
0.0
  0
LINE
  8
0
 62
     0
 10
57.5194
 20
27.7551
 30
0.0
 11
56.72
 21
27.7551
 31
0.0
  0
LINE
  8
0
 62
     0
 10
56.72
 20
27.7551
 30
0.0
 11
56.72
 21
33.5552
 31
0.0
  0
LINE
  8
0
 62
     0
 10
56.72
 20
33.5552
 30
0.0
 11
57.5194
 21
33.5552
 31
0.0
  0
LINE
  8
0
 62
     0
 10
57.5194
 20
33.5552
 30
0.0
 11
57.5194
 21
36.6557
 31
0.0
  0
LINE
  8
0
 62
     0
 10
57.5194
 20
36.6557
 30
0.0
 11
56.72
 21
36.6557
 31
0.0
  0
LINE
  8
0
 62
     0
 10
56.72
 20
36.6557
 30
0.0
 11
56.72
 21
37.6562
 31
0.0
  0
LINE
  8
0
 62
     0
 10
56.72
 20
37.6562
 30
0.0
 11
42.7193
 21
37.6562
 31
0.0
  0
LINE
  8
0
 62
     0
 10
4.6192
 20
56.7062
 30
0.0
 11
4.6192
 21
55.7057
 31
0.0
  0
LINE
  8
0
 62
     0
 10
4.6192
 20
55.7057
 30
0.0
 11
3.81854
 21
55.7057
 31
0.0
  0
LINE
  8
0
 62
     0
 10
3.81854
 20
55.7057
 30
0.0
 11
3.81854
 21
52.6066
 31
0.0
  0
LINE
  8
0
 62
     0
 10
3.81854
 20
52.6066
 30
0.0
 11
4.6192
 21
52.6066
 31
0.0
  0
LINE
  8
0
 62
     0
 10
4.6192
 20
52.6066
 30
0.0
 11
4.6192
 21
46.8051
 31
0.0
  0
LINE
  8
0
 62
     0
 10
4.6192
 20
46.8051
 30
0.0
 11
3.81854
 21
46.8051
 31
0.0
  0
LINE
  8
0
 62
     0
 10
3.81854
 20
46.8051
 30
0.0
 11
3.81854
 21
43.706
 31
0.0
  0
LINE
  8
0
 62
     0
 10
3.81854
 20
43.706
 30
0.0
 11
4.6192
 21
43.706
 31
0.0
  0
LINE
  8
0
 62
     0
 10
4.6192
 20
43.706
 30
0.0
 11
4.6192
 21
42.7055
 31
0.0
  0
LINE
  8
0
 62
     0
 10
4.6192
 20
42.7055
 30
0.0
 11
18.6201
 21
42.7055
 31
0.0
  0
LINE
  8
0
 62
     0
 10
18.6201
 20
42.7055
 30
0.0
 11
18.6201
 21
43.706
 31
0.0
  0
LINE
  8
0
 62
     0
 10
18.6201
 20
43.706
 30
0.0
 11
19.4193
 21
43.706
 31
0.0
  0
LINE
  8
0
 62
     0
 10
19.4193
 20
43.706
 30
0.0
 11
19.4193
 21
46.8051
 31
0.0
  0
LINE
  8
0
 62
     0
 10
19.4193
 20
46.8051
 30
0.0
 11
18.6201
 21
46.8051
 31
0.0
  0
LINE
  8
0
 62
     0
 10
18.6201
 20
46.8051
 30
0.0
 11
18.6201
 21
52.6066
 31
0.0
  0
LINE
  8
0
 62
     0
 10
18.6201
 20
52.6066
 30
0.0
 11
19.4193
 21
52.6066
 31
0.0
  0
LINE
  8
0
 62
     0
 10
19.4193
 20
52.6066
 30
0.0
 11
19.4193
 21
55.7057
 31
0.0
  0
LINE
  8
0
 62
     0
 10
19.4193
 20
55.7057
 30
0.0
 11
18.6201
 21
55.7057
 31
0.0
  0
LINE
  8
0
 62
     0
 10
18.6201
 20
55.7057
 30
0.0
 11
18.6201
 21
56.7062
 31
0.0
  0
LINE
  8
0
 62
     0
 10
18.6201
 20
56.7062
 30
0.0
 11
4.6192
 21
56.7062
 31
0.0
  0
LINE
  8
0
 62
     0
 10
23.6692
 20
56.7062
 30
0.0
 11
23.6692
 21
55.7057
 31
0.0
  0
LINE
  8
0
 62
     0
 10
23.6692
 20
55.7057
 30
0.0
 11
22.8699
 21
55.7057
 31
0.0
  0
LINE
  8
0
 62
     0
 10
22.8699
 20
55.7057
 30
0.0
 11
22.8699
 21
52.6066
 31
0.0
  0
LINE
  8
0
 62
     0
 10
22.8699
 20
52.6066
 30
0.0
 11
23.6692
 21
52.6066
 31
0.0
  0
LINE
  8
0
 62
     0
 10
23.6692
 20
52.6066
 30
0.0
 11
23.6692
 21
46.8051
 31
0.0
  0
LINE
  8
0
 62
     0
 10
23.6692
 20
46.8051
 30
0.0
 11
22.8699
 21
46.8051
 31
0.0
  0
LINE
  8
0
 62
     0
 10
22.8699
 20
46.8051
 30
0.0
 11
22.8699
 21
43.706
 31
0.0
  0
LINE
  8
0
 62
     0
 10
22.8699
 20
43.706
 30
0.0
 11
23.6692
 21
43.706
 31
0.0
  0
LINE
  8
0
 62
     0
 10
23.6692
 20
43.706
 30
0.0
 11
23.6692
 21
42.7055
 31
0.0
  0
LINE
  8
0
 62
     0
 10
23.6692
 20
42.7055
 30
0.0
 11
37.67
 21
42.7055
 31
0.0
  0
LINE
  8
0
 62
     0
 10
37.67
 20
42.7055
 30
0.0
 11
37.67
 21
43.706
 31
0.0
  0
LINE
  8
0
 62
     0
 10
37.67
 20
43.706
 30
0.0
 11
38.4694
 21
43.706
 31
0.0
  0
LINE
  8
0
 62
     0
 10
38.4694
 20
43.706
 30
0.0
 11
38.4694
 21
46.8051
 31
0.0
  0
LINE
  8
0
 62
     0
 10
38.4694
 20
46.8051
 30
0.0
 11
37.67
 21
46.8051
 31
0.0
  0
LINE
  8
0
 62
     0
 10
37.67
 20
46.8051
 30
0.0
 11
37.67
 21
52.6066
 31
0.0
  0
LINE
  8
0
 62
     0
 10
37.67
 20
52.6066
 30
0.0
 11
38.4694
 21
52.6066
 31
0.0
  0
LINE
  8
0
 62
     0
 10
38.4694
 20
52.6066
 30
0.0
 11
38.4694
 21
55.7057
 31
0.0
  0
LINE
  8
0
 62
     0
 10
38.4694
 20
55.7057
 30
0.0
 11
37.67
 21
55.7057
 31
0.0
  0
LINE
  8
0
 62
     0
 10
37.67
 20
55.7057
 30
0.0
 11
37.67
 21
56.7062
 31
0.0
  0
LINE
  8
0
 62
     0
 10
37.67
 20
56.7062
 30
0.0
 11
23.6692
 21
56.7062
 31
0.0
  0
LINE
  8
0
 62
     0
 10
42.7193
 20
56.7062
 30
0.0
 11
42.7193
 21
55.7057
 31
0.0
  0
LINE
  8
0
 62
     0
 10
42.7193
 20
55.7057
 30
0.0
 11
41.9199
 21
55.7057
 31
0.0
  0
LINE
  8
0
 62
     0
 10
41.9199
 20
55.7057
 30
0.0
 11
41.9199
 21
52.6066
 31
0.0
  0
LINE
  8
0
 62
     0
 10
41.9199
 20
52.6066
 30
0.0
 11
42.7193
 21
52.6066
 31
0.0
  0
LINE
  8
0
 62
     0
 10
42.7193
 20
52.6066
 30
0.0
 11
42.7193
 21
46.8051
 31
0.0
  0
LINE
  8
0
 62
     0
 10
42.7193
 20
46.8051
 30
0.0
 11
41.9199
 21
46.8051
 31
0.0
  0
LINE
  8
0
 62
     0
 10
41.9199
 20
46.8051
 30
0.0
 11
41.9199
 21
43.706
 31
0.0
  0
LINE
  8
0
 62
     0
 10
41.9199
 20
43.706
 30
0.0
 11
42.7193
 21
43.706
 31
0.0
  0
LINE
  8
0
 62
     0
 10
42.7193
 20
43.706
 30
0.0
 11
42.7193
 21
42.7055
 31
0.0
  0
LINE
  8
0
 62
     0
 10
42.7193
 20
42.7055
 30
0.0
 11
56.72
 21
42.7055
 31
0.0
  0
LINE
  8
0
 62
     0
 10
56.72
 20
42.7055
 30
0.0
 11
56.72
 21
43.706
 31
0.0
  0
LINE
  8
0
 62
     0
 10
56.72
 20
43.706
 30
0.0
 11
57.5194
 21
43.706
 31
0.0
  0
LINE
  8
0
 62
     0
 10
57.5194
 20
43.706
 30
0.0
 11
57.5194
 21
46.8051
 31
0.0
  0
LINE
  8
0
 62
     0
 10
57.5194
 20
46.8051
 30
0.0
 11
56.72
 21
46.8051
 31
0.0
  0
LINE
  8
0
 62
     0
 10
56.72
 20
46.8051
 30
0.0
 11
56.72
 21
52.6066
 31
0.0
  0
LINE
  8
0
 62
     0
 10
56.72
 20
52.6066
 30
0.0
 11
57.5194
 21
52.6066
 31
0.0
  0
LINE
  8
0
 62
     0
 10
57.5194
 20
52.6066
 30
0.0
 11
57.5194
 21
55.7057
 31
0.0
  0
LINE
  8
0
 62
     0
 10
57.5194
 20
55.7057
 30
0.0
 11
56.72
 21
55.7057
 31
0.0
  0
LINE
  8
0
 62
     0
 10
56.72
 20
55.7057
 30
0.0
 11
56.72
 21
56.7062
 31
0.0
  0
LINE
  8
0
 62
     0
 10
56.72
 20
56.7062
 30
0.0
 11
42.7193
 21
56.7062
 31
0.0
  0
LINE
  8
0
 62
     0
 10
4.6192
 20
75.7562
 30
0.0
 11
4.6192
 21
74.7571
 31
0.0
  0
LINE
  8
0
 62
     0
 10
4.6192
 20
74.7571
 30
0.0
 11
3.81854
 21
74.7571
 31
0.0
  0
LINE
  8
0
 62
     0
 10
3.81854
 20
74.7571
 30
0.0
 11
3.81854
 21
71.6566
 31
0.0
  0
LINE
  8
0
 62
     0
 10
3.81854
 20
71.6566
 30
0.0
 11
4.6192
 21
71.6566
 31
0.0
  0
LINE
  8
0
 62
     0
 10
4.6192
 20
71.6566
 30
0.0
 11
4.6192
 21
65.8566
 31
0.0
  0
LINE
  8
0
 62
     0
 10
4.6192
 20
65.8566
 30
0.0
 11
3.81854
 21
65.8566
 31
0.0
  0
LINE
  8
0
 62
     0
 10
3.81854
 20
65.8566
 30
0.0
 11
3.81854
 21
62.756
 31
0.0
  0
LINE
  8
0
 62
     0
 10
3.81854
 20
62.756
 30
0.0
 11
4.6192
 21
62.756
 31
0.0
  0
LINE
  8
0
 62
     0
 10
4.6192
 20
62.756
 30
0.0
 11
4.6192
 21
61.7555
 31
0.0
  0
LINE
  8
0
 62
     0
 10
4.6192
 20
61.7555
 30
0.0
 11
18.6201
 21
61.7555
 31
0.0
  0
LINE
  8
0
 62
     0
 10
18.6201
 20
61.7555
 30
0.0
 11
18.6201
 21
62.756
 31
0.0
  0
LINE
  8
0
 62
     0
 10
18.6201
 20
62.756
 30
0.0
 11
19.4193
 21
62.756
 31
0.0
  0
LINE
  8
0
 62
     0
 10
19.4193
 20
62.756
 30
0.0
 11
19.4193
 21
65.8566
 31
0.0
  0
LINE
  8
0
 62
     0
 10
19.4193
 20
65.8566
 30
0.0
 11
18.6201
 21
65.8566
 31
0.0
  0
LINE
  8
0
 62
     0
 10
18.6201
 20
65.8566
 30
0.0
 11
18.6201
 21
71.6566
 31
0.0
  0
LINE
  8
0
 62
     0
 10
18.6201
 20
71.6566
 30
0.0
 11
19.4193
 21
71.6566
 31
0.0
  0
LINE
  8
0
 62
     0
 10
19.4193
 20
71.6566
 30
0.0
 11
19.4193
 21
74.7571
 31
0.0
  0
LINE
  8
0
 62
     0
 10
19.4193
 20
74.7571
 30
0.0
 11
18.6201
 21
74.7571
 31
0.0
  0
LINE
  8
0
 62
     0
 10
18.6201
 20
74.7571
 30
0.0
 11
18.6201
 21
75.7562
 31
0.0
  0
LINE
  8
0
 62
     0
 10
18.6201
 20
75.7562
 30
0.0
 11
4.6192
 21
75.7562
 31
0.0
  0
LINE
  8
0
 62
     0
 10
23.6692
 20
75.7562
 30
0.0
 11
23.6692
 21
74.7571
 31
0.0
  0
LINE
  8
0
 62
     0
 10
23.6692
 20
74.7571
 30
0.0
 11
22.8699
 21
74.7571
 31
0.0
  0
LINE
  8
0
 62
     0
 10
22.8699
 20
74.7571
 30
0.0
 11
22.8699
 21
71.6566
 31
0.0
  0
LINE
  8
0
 62
     0
 10
22.8699
 20
71.6566
 30
0.0
 11
23.6692
 21
71.6566
 31
0.0
  0
LINE
  8
0
 62
     0
 10
23.6692
 20
71.6566
 30
0.0
 11
23.6692
 21
65.8566
 31
0.0
  0
LINE
  8
0
 62
     0
 10
23.6692
 20
65.8566
 30
0.0
 11
22.8699
 21
65.8566
 31
0.0
  0
LINE
  8
0
 62
     0
 10
22.8699
 20
65.8566
 30
0.0
 11
22.8699
 21
62.756
 31
0.0
  0
LINE
  8
0
 62
     0
 10
22.8699
 20
62.756
 30
0.0
 11
23.6692
 21
62.756
 31
0.0
  0
LINE
  8
0
 62
     0
 10
23.6692
 20
62.756
 30
0.0
 11
23.6692
 21
61.7555
 31
0.0
  0
LINE
  8
0
 62
     0
 10
23.6692
 20
61.7555
 30
0.0
 11
37.67
 21
61.7555
 31
0.0
  0
LINE
  8
0
 62
     0
 10
37.67
 20
61.7555
 30
0.0
 11
37.67
 21
62.756
 31
0.0
  0
LINE
  8
0
 62
     0
 10
37.67
 20
62.756
 30
0.0
 11
38.4694
 21
62.756
 31
0.0
  0
LINE
  8
0
 62
     0
 10
38.4694
 20
62.756
 30
0.0
 11
38.4694
 21
65.8566
 31
0.0
  0
LINE
  8
0
 62
     0
 10
38.4694
 20
65.8566
 30
0.0
 11
37.67
 21
65.8566
 31
0.0
  0
LINE
  8
0
 62
     0
 10
37.67
 20
65.8566
 30
0.0
 11
37.67
 21
71.6566
 31
0.0
  0
LINE
  8
0
 62
     0
 10
37.67
 20
71.6566
 30
0.0
 11
38.4694
 21
71.6566
 31
0.0
  0
LINE
  8
0
 62
     0
 10
38.4694
 20
71.6566
 30
0.0
 11
38.4694
 21
74.7571
 31
0.0
  0
LINE
  8
0
 62
     0
 10
38.4694
 20
74.7571
 30
0.0
 11
37.67
 21
74.7571
 31
0.0
  0
LINE
  8
0
 62
     0
 10
37.67
 20
74.7571
 30
0.0
 11
37.67
 21
75.7562
 31
0.0
  0
LINE
  8
0
 62
     0
 10
37.67
 20
75.7562
 30
0.0
 11
23.6692
 21
75.7562
 31
0.0
  0
LINE
  8
0
 62
     0
 10
42.7193
 20
75.7562
 30
0.0
 11
42.7193
 21
74.7571
 31
0.0
  0
LINE
  8
0
 62
     0
 10
42.7193
 20
74.7571
 30
0.0
 11
41.9199
 21
74.7571
 31
0.0
  0
LINE
  8
0
 62
     0
 10
41.9199
 20
74.7571
 30
0.0
 11
41.9199
 21
71.6566
 31
0.0
  0
LINE
  8
0
 62
     0
 10
41.9199
 20
71.6566
 30
0.0
 11
42.7193
 21
71.6566
 31
0.0
  0
LINE
  8
0
 62
     0
 10
42.7193
 20
71.6566
 30
0.0
 11
42.7193
 21
65.8566
 31
0.0
  0
LINE
  8
0
 62
     0
 10
42.7193
 20
65.8566
 30
0.0
 11
41.9199
 21
65.8566
 31
0.0
  0
LINE
  8
0
 62
     0
 10
41.9199
 20
65.8566
 30
0.0
 11
41.9199
 21
62.756
 31
0.0
  0
LINE
  8
0
 62
     0
 10
41.9199
 20
62.756
 30
0.0
 11
42.7193
 21
62.756
 31
0.0
  0
LINE
  8
0
 62
     0
 10
42.7193
 20
62.756
 30
0.0
 11
42.7193
 21
61.7555
 31
0.0
  0
LINE
  8
0
 62
     0
 10
42.7193
 20
61.7555
 30
0.0
 11
56.72
 21
61.7555
 31
0.0
  0
LINE
  8
0
 62
     0
 10
56.72
 20
61.7555
 30
0.0
 11
56.72
 21
62.756
 31
0.0
  0
LINE
  8
0
 62
     0
 10
56.72
 20
62.756
 30
0.0
 11
57.5194
 21
62.756
 31
0.0
  0
LINE
  8
0
 62
     0
 10
57.5194
 20
62.756
 30
0.0
 11
57.5194
 21
65.8566
 31
0.0
  0
LINE
  8
0
 62
     0
 10
57.5194
 20
65.8566
 30
0.0
 11
56.72
 21
65.8566
 31
0.0
  0
LINE
  8
0
 62
     0
 10
56.72
 20
65.8566
 30
0.0
 11
56.72
 21
71.6566
 31
0.0
  0
LINE
  8
0
 62
     0
 10
56.72
 20
71.6566
 30
0.0
 11
57.5194
 21
71.6566
 31
0.0
  0
LINE
  8
0
 62
     0
 10
57.5194
 20
71.6566
 30
0.0
 11
57.5194
 21
74.7571
 31
0.0
  0
LINE
  8
0
 62
     0
 10
57.5194
 20
74.7571
 30
0.0
 11
56.72
 21
74.7571
 31
0.0
  0
LINE
  8
0
 62
     0
 10
56.72
 20
74.7571
 30
0.0
 11
56.72
 21
75.7562
 31
0.0
  0
LINE
  8
0
 62
     0
 10
56.72
 20
75.7562
 30
0.0
 11
42.7193
 21
75.7562
 31
0.0
  0
ENDSEC
  0
EOF
