<?xml version="1.0"?>
<!-- Generated by SVGo -->
<svg width="71.152mm" height="96.202mm"
     viewBox="0.000 0.000 71.152 96.202"
     xmlns="http://www.w3.org/2000/svg" 
     xmlns:xlink="http://www.w3.org/1999/xlink">
<polygon points="64.151,5.001 64.308,5.007 64.463,5.025 64.618,5.056 64.770,5.098 64.917,5.153 65.059,5.218 65.195,5.295 65.326,5.382 65.450,5.480 65.566,5.586 65.672,5.702 65.770,5.825 65.857,5.956 65.934,6.093 65.999,6.235 66.054,6.382 66.096,6.534 66.127,6.688 66.145,6.844 66.151,7.001 66.152,89.202 66.145,89.358 66.127,89.514 66.096,89.668 66.054,89.820 65.999,89.967 65.934,90.109 65.857,90.246 65.770,90.377 65.672,90.500 65.566,90.616 65.450,90.722 65.326,90.820 65.195,90.907 65.059,90.984 64.917,91.049 64.770,91.104 64.618,91.146 64.463,91.177 64.308,91.195 64.151,91.201 7.001,91.202 6.844,91.195 6.688,91.177 6.534,91.146 6.382,91.104 6.235,91.049 6.093,90.984 5.956,90.907 5.825,90.820 5.702,90.722 5.586,90.616 5.480,90.500 5.382,90.377 5.295,90.246 5.218,90.109 5.153,89.967 5.098,89.820 5.056,89.668 5.025,89.514 5.007,89.358 5.000,89.202 5.001,7.001 5.007,6.844 5.025,6.688 5.056,6.534 5.098,6.382 5.153,6.235 5.218,6.093 5.295,5.956 5.382,5.825 5.480,5.702 5.586,5.586 5.702,5.480 5.825,5.382 5.956,5.295 6.093,5.218 6.235,5.153 6.382,5.098 6.534,5.056 6.688,5.025 6.844,5.007 7.001,5.000" style="fill:none;stroke-width:0.050000mm;stroke:black"/>
<polygon points="7.485,88.654 7.471,88.661 7.460,88.672 7.453,88.686 7.451,88.702 7.453,88.717 7.460,88.731 7.471,88.742 7.485,88.749 7.501,88.752 7.516,88.749 7.530,88.742 7.541,88.731 7.548,88.717 7.551,88.702 7.548,88.686 7.541,88.672 7.530,88.661 7.516,88.654 7.501,88.652" style="fill:none;stroke-width:0.050000mm;stroke:black"/>
<polygon points="63.636,88.654 63.622,88.661 63.611,88.672 63.604,88.686 63.602,88.702 63.604,88.717 63.611,88.731 63.622,88.742 63.636,88.749 63.651,88.752 63.667,88.749 63.681,88.742 63.692,88.731 63.699,88.717 63.701,88.702 63.699,88.686 63.692,88.672 63.681,88.661 63.667,88.654 63.651,88.652" style="fill:none;stroke-width:0.050000mm;stroke:black"/>
<polygon points="9.525,69.676 9.525,70.676 8.725,70.676 8.725,73.775 9.525,73.775 9.525,79.576 8.725,79.576 8.725,82.676 9.525,82.676 9.525,83.676 23.526,83.676 23.526,82.676 24.326,82.676 24.326,79.576 23.526,79.576 23.526,73.775 24.326,73.775 24.326,70.676 23.526,70.676 23.526,69.676" style="fill:none;stroke-width:0.050000mm;stroke:black"/>
<polygon points="28.576,69.676 28.576,70.676 27.776,70.676 27.776,73.775 28.576,73.775 28.576,79.576 27.776,79.576 27.776,82.676 28.576,82.676 28.576,83.676 42.576,83.676 42.576,82.676 43.376,82.676 43.376,79.576 42.576,79.576 42.576,73.775 43.376,73.775 43.376,70.676 42.576,70.676 42.576,69.676" style="fill:none;stroke-width:0.050000mm;stroke:black"/>
<polygon points="47.626,69.676 47.626,70.676 46.826,70.676 46.826,73.775 47.626,73.775 47.626,79.576 46.826,79.576 46.826,82.676 47.626,82.676 47.626,83.676 61.626,83.676 61.626,82.676 62.426,82.676 62.426,79.576 61.626,79.576 61.626,73.775 62.426,73.775 62.426,70.676 61.626,70.676 61.626,69.676" style="fill:none;stroke-width:0.050000mm;stroke:black"/>
<polygon points="9.525,50.626 9.525,51.626 8.725,51.626 8.725,54.726 9.525,54.726 9.525,60.526 8.725,60.526 8.725,63.626 9.525,63.626 9.525,64.626 23.526,64.626 23.526,63.626 24.326,63.626 24.326,60.526 23.526,60.526 23.526,54.726 24.326,54.726 24.326,51.626 23.526,51.626 23.526,50.626" style="fill:none;stroke-width:0.050000mm;stroke:black"/>
<polygon points="28.576,50.626 28.576,51.626 27.776,51.626 27.776,54.726 28.576,54.726 28.576,60.526 27.776,60.526 27.776,63.626 28.576,63.626 28.576,64.626 42.576,64.626 42.576,63.626 43.376,63.626 43.376,60.526 42.576,60.526 42.576,54.726 43.376,54.726 43.376,51.626 42.576,51.626 42.576,50.626" style="fill:none;stroke-width:0.050000mm;stroke:black"/>
<polygon points="47.626,50.626 47.626,51.626 46.826,51.626 46.826,54.726 47.626,54.726 47.626,60.526 46.826,60.526 46.826,63.626 47.626,63.626 47.626,64.626 61.626,64.626 61.626,63.626 62.426,63.626 62.426,60.526 61.626,60.526 61.626,54.726 62.426,54.726 62.426,51.626 61.626,51.626 61.626,50.626" style="fill:none;stroke-width:0.050000mm;stroke:black"/>
<polygon points="9.525,31.576 9.525,32.576 8.725,32.576 8.725,35.676 9.525,35.676 9.525,41.476 8.725,41.476 8.725,44.576 9.525,44.576 9.525,45.576 23.526,45.576 23.526,44.576 24.326,44.576 24.326,41.476 23.526,41.476 23.526,35.676 24.326,35.676 24.326,32.576 23.526,32.576 23.526,31.576" style="fill:none;stroke-width:0.050000mm;stroke:black"/>
<polygon points="28.576,31.576 28.576,32.576 27.776,32.576 27.776,35.676 28.576,35.676 28.576,41.476 27.776,41.476 27.776,44.576 28.576,44.576 28.576,45.576 42.576,45.576 42.576,44.576 43.376,44.576 43.376,41.476 42.576,41.476 42.576,35.676 43.376,35.676 43.376,32.576 42.576,32.576 42.576,31.576" style="fill:none;stroke-width:0.050000mm;stroke:black"/>
<polygon points="47.626,31.576 47.626,32.576 46.826,32.576 46.826,35.676 47.626,35.676 47.626,41.476 46.826,41.476 46.826,44.576 47.626,44.576 47.626,45.576 61.626,45.576 61.626,44.576 62.426,44.576 62.426,41.476 61.626,41.476 61.626,35.676 62.426,35.676 62.426,32.576 61.626,32.576 61.626,31.576" style="fill:none;stroke-width:0.050000mm;stroke:black"/>
<polygon points="9.525,12.525 9.525,13.525 8.725,13.525 8.725,16.626 9.525,16.626 9.525,22.425 8.725,22.425 8.725,25.526 9.525,25.526 9.525,26.526 23.526,26.526 23.526,25.526 24.326,25.526 24.326,22.425 23.526,22.425 23.526,16.626 24.326,16.626 24.326,13.525 23.526,13.525 23.526,12.525" style="fill:none;stroke-width:0.050000mm;stroke:black"/>
<polygon points="28.576,12.525 28.576,13.525 27.776,13.525 27.776,16.626 28.576,16.626 28.576,22.425 27.776,22.425 27.776,25.526 28.576,25.526 28.576,26.526 42.576,26.526 42.576,25.526 43.376,25.526 43.376,22.425 42.576,22.425 42.576,16.626 43.376,16.626 43.376,13.525 42.576,13.525 42.576,12.525" style="fill:none;stroke-width:0.050000mm;stroke:black"/>
<polygon points="47.626,12.525 47.626,13.525 46.826,13.525 46.826,16.626 47.626,16.626 47.626,22.425 46.826,22.425 46.826,25.526 47.626,25.526 47.626,26.526 61.626,26.526 61.626,25.526 62.426,25.526 62.426,22.425 61.626,22.425 61.626,16.626 62.426,16.626 62.426,13.525 61.626,13.525 61.626,12.525" style="fill:none;stroke-width:0.050000mm;stroke:black"/>
<polygon points="7.485,7.453 7.471,7.460 7.460,7.471 7.453,7.485 7.451,7.501 7.453,7.516 7.460,7.530 7.471,7.541 7.485,7.548 7.501,7.551 7.516,7.548 7.530,7.541 7.541,7.530 7.548,7.516 7.551,7.501 7.548,7.485 7.541,7.471 7.530,7.460 7.516,7.453 7.501,7.451" style="fill:none;stroke-width:0.050000mm;stroke:black"/>
<polygon points="63.636,7.453 63.622,7.460 63.611,7.471 63.604,7.485 63.602,7.501 63.604,7.516 63.611,7.530 63.622,7.541 63.636,7.548 63.651,7.551 63.667,7.548 63.681,7.541 63.692,7.530 63.699,7.516 63.701,7.501 63.699,7.485 63.692,7.471 63.681,7.460 63.667,7.453 63.651,7.451" style="fill:none;stroke-width:0.050000mm;stroke:black"/>
</svg>
