  0
SECTION
  2
HEADER
  9
$ACADVER
  1
AC1009
  9
$EXTMIN
 10
0.0
 20
0.0
 30
0.0
  9
$EXTMAX
 10
1000.0
 20
1000.0
 30
0.0
  9
$FILLMODE
 70
 0
  9
$SPLFRAME
 70
 1
  0
ENDSEC
  0
SECTION
  2
TABLES
  0
TABLE
  2
LAYER
 70
1
  0
LAYER
  2
0
 70
     0
 62
     7
  6
CONTINUOUS
  0
ENDTAB
  0
ENDSEC
  0
SECTION
  2
ENTITIES
  0
LINE
  8
0
 62
     0
 10
59.2448
 20
86.2803
 30
0.0
 11
59.4018
 21
86.275
 31
0.0
  0
LINE
  8
0
 62
     0
 10
59.4018
 20
86.275
 30
0.0
 11
59.5574
 21
86.257
 31
0.0
  0
LINE
  8
0
 62
     0
 10
59.5574
 20
86.257
 30
0.0
 11
59.7119
 21
86.2252
 31
0.0
  0
LINE
  8
0
 62
     0
 10
59.7119
 20
86.2252
 30
0.0
 11
59.8632
 21
86.184
 31
0.0
  0
LINE
  8
0
 62
     0
 10
59.8632
 20
86.184
 30
0.0
 11
60.0107
 21
86.1289
 31
0.0
  0
LINE
  8
0
 62
     0
 10
60.0107
 20
86.1289
 30
0.0
 11
60.1528
 21
86.064
 31
0.0
  0
LINE
  8
0
 62
     0
 10
60.1528
 20
86.064
 30
0.0
 11
60.289
 21
85.9868
 31
0.0
  0
LINE
  8
0
 62
     0
 10
60.289
 20
85.9868
 30
0.0
 11
60.4203
 21
85.9
 31
0.0
  0
LINE
  8
0
 62
     0
 10
60.4203
 20
85.9
 30
0.0
 11
60.5441
 21
85.8023
 31
0.0
  0
LINE
  8
0
 62
     0
 10
60.5441
 20
85.8023
 30
0.0
 11
60.6598
 21
85.6961
 31
0.0
  0
LINE
  8
0
 62
     0
 10
60.6598
 20
85.6961
 30
0.0
 11
60.766
 21
85.5804
 31
0.0
  0
LINE
  8
0
 62
     0
 10
60.766
 20
85.5804
 30
0.0
 11
60.8637
 21
85.4562
 31
0.0
  0
LINE
  8
0
 62
     0
 10
60.8637
 20
85.4562
 30
0.0
 11
60.9505
 21
85.3253
 31
0.0
  0
LINE
  8
0
 62
     0
 10
60.9505
 20
85.3253
 30
0.0
 11
61.0277
 21
85.1888
 31
0.0
  0
LINE
  8
0
 62
     0
 10
61.0277
 20
85.1888
 30
0.0
 11
61.0926
 21
85.047
 31
0.0
  0
LINE
  8
0
 62
     0
 10
61.0926
 20
85.047
 30
0.0
 11
61.1477
 21
84.8995
 31
0.0
  0
LINE
  8
0
 62
     0
 10
61.1477
 20
84.8995
 30
0.0
 11
61.1904
 21
84.7478
 31
0.0
  0
LINE
  8
0
 62
     0
 10
61.1904
 20
84.7478
 30
0.0
 11
61.2207
 21
84.5936
 31
0.0
  0
LINE
  8
0
 62
     0
 10
61.2207
 20
84.5936
 30
0.0
 11
61.2387
 21
84.4381
 31
0.0
  0
LINE
  8
0
 62
     0
 10
61.2387
 20
84.4381
 30
0.0
 11
61.244
 21
84.2807
 31
0.0
  0
LINE
  8
0
 62
     0
 10
61.244
 20
84.2807
 30
0.0
 11
61.2454
 21
2.07946
 31
0.0
  0
LINE
  8
0
 62
     0
 10
61.2454
 20
2.07946
 30
0.0
 11
61.2387
 21
1.92374
 31
0.0
  0
LINE
  8
0
 62
     0
 10
61.2387
 20
1.92374
 30
0.0
 11
61.2207
 21
1.76802
 31
0.0
  0
LINE
  8
0
 62
     0
 10
61.2207
 20
1.76802
 30
0.0
 11
61.1904
 21
1.61368
 31
0.0
  0
LINE
  8
0
 62
     0
 10
61.1904
 20
1.61368
 30
0.0
 11
61.1477
 21
1.4621
 31
0.0
  0
LINE
  8
0
 62
     0
 10
61.1477
 20
1.4621
 30
0.0
 11
61.0926
 21
1.31465
 31
0.0
  0
LINE
  8
0
 62
     0
 10
61.0926
 20
1.31465
 30
0.0
 11
61.0277
 21
1.17271
 31
0.0
  0
LINE
  8
0
 62
     0
 10
61.0277
 20
1.17271
 30
0.0
 11
60.9505
 21
1.03628
 31
0.0
  0
LINE
  8
0
 62
     0
 10
60.9505
 20
1.03628
 30
0.0
 11
60.8637
 21
0.905372
 31
0.0
  0
LINE
  8
0
 62
     0
 10
60.8637
 20
0.905372
 30
0.0
 11
60.766
 21
0.781346
 31
0.0
  0
LINE
  8
0
 62
     0
 10
60.766
 20
0.781346
 30
0.0
 11
60.6598
 21
0.665593
 31
0.0
  0
LINE
  8
0
 62
     0
 10
60.6598
 20
0.665593
 30
0.0
 11
60.5441
 21
0.559484
 31
0.0
  0
LINE
  8
0
 62
     0
 10
60.5441
 20
0.559484
 30
0.0
 11
60.4203
 21
0.461641
 31
0.0
  0
LINE
  8
0
 62
     0
 10
60.4203
 20
0.461641
 30
0.0
 11
60.289
 21
0.374826
 31
0.0
  0
LINE
  8
0
 62
     0
 10
60.289
 20
0.374826
 30
0.0
 11
60.1528
 21
0.297656
 31
0.0
  0
LINE
  8
0
 62
     0
 10
60.1528
 20
0.297656
 30
0.0
 11
60.0107
 21
0.232888
 31
0.0
  0
LINE
  8
0
 62
     0
 10
60.0107
 20
0.232888
 30
0.0
 11
59.8632
 21
0.177767
 31
0.0
  0
LINE
  8
0
 62
     0
 10
59.8632
 20
0.177767
 30
0.0
 11
59.7119
 21
0.135048
 31
0.0
  0
LINE
  8
0
 62
     0
 10
59.7119
 20
0.135048
 30
0.0
 11
59.5574
 21
0.104731
 31
0.0
  0
LINE
  8
0
 62
     0
 10
59.5574
 20
0.104731
 30
0.0
 11
59.4018
 21
0.0868165
 31
0.0
  0
LINE
  8
0
 62
     0
 10
59.4018
 20
0.0868165
 30
0.0
 11
59.2448
 21
0.0813043
 31
0.0
  0
LINE
  8
0
 62
     0
 10
59.2448
 20
0.0813043
 30
0.0
 11
2.09462
 21
0.0799264
 31
0.0
  0
LINE
  8
0
 62
     0
 10
2.09462
 20
0.0799264
 30
0.0
 11
1.93752
 21
0.0868165
 31
0.0
  0
LINE
  8
0
 62
     0
 10
1.93752
 20
0.0868165
 30
0.0
 11
1.7818
 21
0.104731
 31
0.0
  0
LINE
  8
0
 62
     0
 10
1.7818
 20
0.104731
 30
0.0
 11
1.62746
 21
0.135048
 31
0.0
  0
LINE
  8
0
 62
     0
 10
1.62746
 20
0.135048
 30
0.0
 11
1.47588
 21
0.177767
 31
0.0
  0
LINE
  8
0
 62
     0
 10
1.47588
 20
0.177767
 30
0.0
 11
1.32843
 21
0.232888
 31
0.0
  0
LINE
  8
0
 62
     0
 10
1.32843
 20
0.232888
 30
0.0
 11
1.18649
 21
0.297656
 31
0.0
  0
LINE
  8
0
 62
     0
 10
1.18649
 20
0.297656
 30
0.0
 11
1.05006
 21
0.374826
 31
0.0
  0
LINE
  8
0
 62
     0
 10
1.05006
 20
0.374826
 30
0.0
 11
0.919152
 21
0.461641
 31
0.0
  0
LINE
  8
0
 62
     0
 10
0.919152
 20
0.461641
 30
0.0
 11
0.795129
 21
0.559484
 31
0.0
  0
LINE
  8
0
 62
     0
 10
0.795129
 20
0.559484
 30
0.0
 11
0.679372
 21
0.665593
 31
0.0
  0
LINE
  8
0
 62
     0
 10
0.679372
 20
0.665593
 30
0.0
 11
0.573264
 21
0.781346
 31
0.0
  0
LINE
  8
0
 62
     0
 10
0.573264
 20
0.781346
 30
0.0
 11
0.475424
 21
0.905372
 31
0.0
  0
LINE
  8
0
 62
     0
 10
0.475424
 20
0.905372
 30
0.0
 11
0.388606
 21
1.03628
 31
0.0
  0
LINE
  8
0
 62
     0
 10
0.388606
 20
1.03628
 30
0.0
 11
0.311437
 21
1.17271
 31
0.0
  0
LINE
  8
0
 62
     0
 10
0.311437
 20
1.17271
 30
0.0
 11
0.246669
 21
1.31465
 31
0.0
  0
LINE
  8
0
 62
     0
 10
0.246669
 20
1.31465
 30
0.0
 11
0.191547
 21
1.4621
 31
0.0
  0
LINE
  8
0
 62
     0
 10
0.191547
 20
1.4621
 30
0.0
 11
0.150206
 21
1.61368
 31
0.0
  0
LINE
  8
0
 62
     0
 10
0.150206
 20
1.61368
 30
0.0
 11
0.118511
 21
1.76802
 31
0.0
  0
LINE
  8
0
 62
     0
 10
0.118511
 20
1.76802
 30
0.0
 11
0.100597
 21
1.92374
 31
0.0
  0
LINE
  8
0
 62
     0
 10
0.100597
 20
1.92374
 30
0.0
 11
0.0937066
 21
2.07946
 31
0.0
  0
LINE
  8
0
 62
     0
 10
0.0937066
 20
2.07946
 30
0.0
 11
0.0950846
 21
84.2807
 31
0.0
  0
LINE
  8
0
 62
     0
 10
0.0950846
 20
84.2807
 30
0.0
 11
0.100597
 21
84.4381
 31
0.0
  0
LINE
  8
0
 62
     0
 10
0.100597
 20
84.4381
 30
0.0
 11
0.118511
 21
84.5936
 31
0.0
  0
LINE
  8
0
 62
     0
 10
0.118511
 20
84.5936
 30
0.0
 11
0.150206
 21
84.7478
 31
0.0
  0
LINE
  8
0
 62
     0
 10
0.150206
 20
84.7478
 30
0.0
 11
0.191547
 21
84.8995
 31
0.0
  0
LINE
  8
0
 62
     0
 10
0.191547
 20
84.8995
 30
0.0
 11
0.246669
 21
85.047
 31
0.0
  0
LINE
  8
0
 62
     0
 10
0.246669
 20
85.047
 30
0.0
 11
0.311437
 21
85.1888
 31
0.0
  0
LINE
  8
0
 62
     0
 10
0.311437
 20
85.1888
 30
0.0
 11
0.388606
 21
85.3253
 31
0.0
  0
LINE
  8
0
 62
     0
 10
0.388606
 20
85.3253
 30
0.0
 11
0.475424
 21
85.4562
 31
0.0
  0
LINE
  8
0
 62
     0
 10
0.475424
 20
85.4562
 30
0.0
 11
0.573264
 21
85.5804
 31
0.0
  0
LINE
  8
0
 62
     0
 10
0.573264
 20
85.5804
 30
0.0
 11
0.679372
 21
85.6961
 31
0.0
  0
LINE
  8
0
 62
     0
 10
0.679372
 20
85.6961
 30
0.0
 11
0.795129
 21
85.8023
 31
0.0
  0
LINE
  8
0
 62
     0
 10
0.795129
 20
85.8023
 30
0.0
 11
0.919152
 21
85.9
 31
0.0
  0
LINE
  8
0
 62
     0
 10
0.919152
 20
85.9
 30
0.0
 11
1.05006
 21
85.9868
 31
0.0
  0
LINE
  8
0
 62
     0
 10
1.05006
 20
85.9868
 30
0.0
 11
1.18649
 21
86.064
 31
0.0
  0
LINE
  8
0
 62
     0
 10
1.18649
 20
86.064
 30
0.0
 11
1.32843
 21
86.1289
 31
0.0
  0
LINE
  8
0
 62
     0
 10
1.32843
 20
86.1289
 30
0.0
 11
1.47588
 21
86.184
 31
0.0
  0
LINE
  8
0
 62
     0
 10
1.47588
 20
86.184
 30
0.0
 11
1.62746
 21
86.2252
 31
0.0
  0
LINE
  8
0
 62
     0
 10
1.62746
 20
86.2252
 30
0.0
 11
1.7818
 21
86.257
 31
0.0
  0
LINE
  8
0
 62
     0
 10
1.7818
 20
86.257
 30
0.0
 11
1.93752
 21
86.275
 31
0.0
  0
LINE
  8
0
 62
     0
 10
1.93752
 20
86.275
 30
0.0
 11
2.09462
 21
86.2817
 31
0.0
  0
LINE
  8
0
 62
     0
 10
2.09462
 20
86.2817
 30
0.0
 11
59.2448
 21
86.2803
 31
0.0
  0
LINE
  8
0
 62
     0
 10
2.57831
 20
2.62792
 30
0.0
 11
2.56453
 21
2.62103
 31
0.0
  0
LINE
  8
0
 62
     0
 10
2.56453
 20
2.62103
 30
0.0
 11
2.5535
 21
2.61001
 31
0.0
  0
LINE
  8
0
 62
     0
 10
2.5535
 20
2.61001
 30
0.0
 11
2.54661
 21
2.59623
 31
0.0
  0
LINE
  8
0
 62
     0
 10
2.54661
 20
2.59623
 30
0.0
 11
2.54524
 21
2.57969
 31
0.0
  0
LINE
  8
0
 62
     0
 10
2.54524
 20
2.57969
 30
0.0
 11
2.54661
 21
2.56453
 31
0.0
  0
LINE
  8
0
 62
     0
 10
2.54661
 20
2.56453
 30
0.0
 11
2.5535
 21
2.55075
 31
0.0
  0
LINE
  8
0
 62
     0
 10
2.5535
 20
2.55075
 30
0.0
 11
2.56453
 21
2.53972
 31
0.0
  0
LINE
  8
0
 62
     0
 10
2.56453
 20
2.53972
 30
0.0
 11
2.57831
 21
2.53284
 31
0.0
  0
LINE
  8
0
 62
     0
 10
2.57831
 20
2.53284
 30
0.0
 11
2.59485
 21
2.53008
 31
0.0
  0
LINE
  8
0
 62
     0
 10
2.59485
 20
2.53008
 30
0.0
 11
2.61001
 21
2.53284
 31
0.0
  0
LINE
  8
0
 62
     0
 10
2.61001
 20
2.53284
 30
0.0
 11
2.62378
 21
2.53972
 31
0.0
  0
LINE
  8
0
 62
     0
 10
2.62378
 20
2.53972
 30
0.0
 11
2.63481
 21
2.55075
 31
0.0
  0
LINE
  8
0
 62
     0
 10
2.63481
 20
2.55075
 30
0.0
 11
2.6417
 21
2.56453
 31
0.0
  0
LINE
  8
0
 62
     0
 10
2.6417
 20
2.56453
 30
0.0
 11
2.64445
 21
2.57969
 31
0.0
  0
LINE
  8
0
 62
     0
 10
2.64445
 20
2.57969
 30
0.0
 11
2.6417
 21
2.59623
 31
0.0
  0
LINE
  8
0
 62
     0
 10
2.6417
 20
2.59623
 30
0.0
 11
2.63481
 21
2.61001
 31
0.0
  0
LINE
  8
0
 62
     0
 10
2.63481
 20
2.61001
 30
0.0
 11
2.62378
 21
2.62103
 31
0.0
  0
LINE
  8
0
 62
     0
 10
2.62378
 20
2.62103
 30
0.0
 11
2.61001
 21
2.62792
 31
0.0
  0
LINE
  8
0
 62
     0
 10
2.61001
 20
2.62792
 30
0.0
 11
2.59485
 21
2.6293
 31
0.0
  0
LINE
  8
0
 62
     0
 10
2.59485
 20
2.6293
 30
0.0
 11
2.57831
 21
2.62792
 31
0.0
  0
LINE
  8
0
 62
     0
 10
58.7294
 20
2.62792
 30
0.0
 11
58.7156
 21
2.62103
 31
0.0
  0
LINE
  8
0
 62
     0
 10
58.7156
 20
2.62103
 30
0.0
 11
58.7043
 21
2.61001
 31
0.0
  0
LINE
  8
0
 62
     0
 10
58.7043
 20
2.61001
 30
0.0
 11
58.6976
 21
2.59623
 31
0.0
  0
LINE
  8
0
 62
     0
 10
58.6976
 20
2.59623
 30
0.0
 11
58.6962
 21
2.57969
 31
0.0
  0
LINE
  8
0
 62
     0
 10
58.6962
 20
2.57969
 30
0.0
 11
58.6976
 21
2.56453
 31
0.0
  0
LINE
  8
0
 62
     0
 10
58.6976
 20
2.56453
 30
0.0
 11
58.7043
 21
2.55075
 31
0.0
  0
LINE
  8
0
 62
     0
 10
58.7043
 20
2.55075
 30
0.0
 11
58.7156
 21
2.53972
 31
0.0
  0
LINE
  8
0
 62
     0
 10
58.7156
 20
2.53972
 30
0.0
 11
58.7294
 21
2.53284
 31
0.0
  0
LINE
  8
0
 62
     0
 10
58.7294
 20
2.53284
 30
0.0
 11
58.7446
 21
2.53008
 31
0.0
  0
LINE
  8
0
 62
     0
 10
58.7446
 20
2.53008
 30
0.0
 11
58.7608
 21
2.53284
 31
0.0
  0
LINE
  8
0
 62
     0
 10
58.7608
 20
2.53284
 30
0.0
 11
58.7745
 21
2.53972
 31
0.0
  0
LINE
  8
0
 62
     0
 10
58.7745
 20
2.53972
 30
0.0
 11
58.7858
 21
2.55075
 31
0.0
  0
LINE
  8
0
 62
     0
 10
58.7858
 20
2.55075
 30
0.0
 11
58.7925
 21
2.56453
 31
0.0
  0
LINE
  8
0
 62
     0
 10
58.7925
 20
2.56453
 30
0.0
 11
58.7954
 21
2.57969
 31
0.0
  0
LINE
  8
0
 62
     0
 10
58.7954
 20
2.57969
 30
0.0
 11
58.7925
 21
2.59623
 31
0.0
  0
LINE
  8
0
 62
     0
 10
58.7925
 20
2.59623
 30
0.0
 11
58.7858
 21
2.61001
 31
0.0
  0
LINE
  8
0
 62
     0
 10
58.7858
 20
2.61001
 30
0.0
 11
58.7745
 21
2.62103
 31
0.0
  0
LINE
  8
0
 62
     0
 10
58.7745
 20
2.62103
 30
0.0
 11
58.7608
 21
2.62792
 31
0.0
  0
LINE
  8
0
 62
     0
 10
58.7608
 20
2.62792
 30
0.0
 11
58.7446
 21
2.6293
 31
0.0
  0
LINE
  8
0
 62
     0
 10
58.7446
 20
2.6293
 30
0.0
 11
58.7294
 21
2.62792
 31
0.0
  0
LINE
  8
0
 62
     0
 10
4.6192
 20
21.6063
 30
0.0
 11
4.6192
 21
20.6058
 31
0.0
  0
LINE
  8
0
 62
     0
 10
4.6192
 20
20.6058
 30
0.0
 11
3.81854
 21
20.6058
 31
0.0
  0
LINE
  8
0
 62
     0
 10
3.81854
 20
20.6058
 30
0.0
 11
3.81854
 21
17.5066
 31
0.0
  0
LINE
  8
0
 62
     0
 10
3.81854
 20
17.5066
 30
0.0
 11
4.6192
 21
17.5066
 31
0.0
  0
LINE
  8
0
 62
     0
 10
4.6192
 20
17.5066
 30
0.0
 11
4.6192
 21
11.7051
 31
0.0
  0
LINE
  8
0
 62
     0
 10
4.6192
 20
11.7051
 30
0.0
 11
3.81854
 21
11.7051
 31
0.0
  0
LINE
  8
0
 62
     0
 10
3.81854
 20
11.7051
 30
0.0
 11
3.81854
 21
8.60584
 31
0.0
  0
LINE
  8
0
 62
     0
 10
3.81854
 20
8.60584
 30
0.0
 11
4.6192
 21
8.60584
 31
0.0
  0
LINE
  8
0
 62
     0
 10
4.6192
 20
8.60584
 30
0.0
 11
4.6192
 21
7.60539
 31
0.0
  0
LINE
  8
0
 62
     0
 10
4.6192
 20
7.60539
 30
0.0
 11
18.6201
 21
7.60539
 31
0.0
  0
LINE
  8
0
 62
     0
 10
18.6201
 20
7.60539
 30
0.0
 11
18.6201
 21
8.60584
 31
0.0
  0
LINE
  8
0
 62
     0
 10
18.6201
 20
8.60584
 30
0.0
 11
19.4193
 21
8.60584
 31
0.0
  0
LINE
  8
0
 62
     0
 10
19.4193
 20
8.60584
 30
0.0
 11
19.4193
 21
11.7051
 31
0.0
  0
LINE
  8
0
 62
     0
 10
19.4193
 20
11.7051
 30
0.0
 11
18.6201
 21
11.7051
 31
0.0
  0
LINE
  8
0
 62
     0
 10
18.6201
 20
11.7051
 30
0.0
 11
18.6201
 21
17.5066
 31
0.0
  0
LINE
  8
0
 62
     0
 10
18.6201
 20
17.5066
 30
0.0
 11
19.4193
 21
17.5066
 31
0.0
  0
LINE
  8
0
 62
     0
 10
19.4193
 20
17.5066
 30
0.0
 11
19.4193
 21
20.6058
 31
0.0
  0
LINE
  8
0
 62
     0
 10
19.4193
 20
20.6058
 30
0.0
 11
18.6201
 21
20.6058
 31
0.0
  0
LINE
  8
0
 62
     0
 10
18.6201
 20
20.6058
 30
0.0
 11
18.6201
 21
21.6063
 31
0.0
  0
LINE
  8
0
 62
     0
 10
18.6201
 20
21.6063
 30
0.0
 11
4.6192
 21
21.6063
 31
0.0
  0
LINE
  8
0
 62
     0
 10
23.6692
 20
21.6063
 30
0.0
 11
23.6692
 21
20.6058
 31
0.0
  0
LINE
  8
0
 62
     0
 10
23.6692
 20
20.6058
 30
0.0
 11
22.8699
 21
20.6058
 31
0.0
  0
LINE
  8
0
 62
     0
 10
22.8699
 20
20.6058
 30
0.0
 11
22.8699
 21
17.5066
 31
0.0
  0
LINE
  8
0
 62
     0
 10
22.8699
 20
17.5066
 30
0.0
 11
23.6692
 21
17.5066
 31
0.0
  0
LINE
  8
0
 62
     0
 10
23.6692
 20
17.5066
 30
0.0
 11
23.6692
 21
11.7051
 31
0.0
  0
LINE
  8
0
 62
     0
 10
23.6692
 20
11.7051
 30
0.0
 11
22.8699
 21
11.7051
 31
0.0
  0
LINE
  8
0
 62
     0
 10
22.8699
 20
11.7051
 30
0.0
 11
22.8699
 21
8.60584
 31
0.0
  0
LINE
  8
0
 62
     0
 10
22.8699
 20
8.60584
 30
0.0
 11
23.6692
 21
8.60584
 31
0.0
  0
LINE
  8
0
 62
     0
 10
23.6692
 20
8.60584
 30
0.0
 11
23.6692
 21
7.60539
 31
0.0
  0
LINE
  8
0
 62
     0
 10
23.6692
 20
7.60539
 30
0.0
 11
37.67
 21
7.60539
 31
0.0
  0
LINE
  8
0
 62
     0
 10
37.67
 20
7.60539
 30
0.0
 11
37.67
 21
8.60584
 31
0.0
  0
LINE
  8
0
 62
     0
 10
37.67
 20
8.60584
 30
0.0
 11
38.4694
 21
8.60584
 31
0.0
  0
LINE
  8
0
 62
     0
 10
38.4694
 20
8.60584
 30
0.0
 11
38.4694
 21
11.7051
 31
0.0
  0
LINE
  8
0
 62
     0
 10
38.4694
 20
11.7051
 30
0.0
 11
37.67
 21
11.7051
 31
0.0
  0
LINE
  8
0
 62
     0
 10
37.67
 20
11.7051
 30
0.0
 11
37.67
 21
17.5066
 31
0.0
  0
LINE
  8
0
 62
     0
 10
37.67
 20
17.5066
 30
0.0
 11
38.4694
 21
17.5066
 31
0.0
  0
LINE
  8
0
 62
     0
 10
38.4694
 20
17.5066
 30
0.0
 11
38.4694
 21
20.6058
 31
0.0
  0
LINE
  8
0
 62
     0
 10
38.4694
 20
20.6058
 30
0.0
 11
37.67
 21
20.6058
 31
0.0
  0
LINE
  8
0
 62
     0
 10
37.67
 20
20.6058
 30
0.0
 11
37.67
 21
21.6063
 31
0.0
  0
LINE
  8
0
 62
     0
 10
37.67
 20
21.6063
 30
0.0
 11
23.6692
 21
21.6063
 31
0.0
  0
LINE
  8
0
 62
     0
 10
42.7193
 20
21.6063
 30
0.0
 11
42.7193
 21
20.6058
 31
0.0
  0
LINE
  8
0
 62
     0
 10
42.7193
 20
20.6058
 30
0.0
 11
41.9199
 21
20.6058
 31
0.0
  0
LINE
  8
0
 62
     0
 10
41.9199
 20
20.6058
 30
0.0
 11
41.9199
 21
17.5066
 31
0.0
  0
LINE
  8
0
 62
     0
 10
41.9199
 20
17.5066
 30
0.0
 11
42.7193
 21
17.5066
 31
0.0
  0
LINE
  8
0
 62
     0
 10
42.7193
 20
17.5066
 30
0.0
 11
42.7193
 21
11.7051
 31
0.0
  0
LINE
  8
0
 62
     0
 10
42.7193
 20
11.7051
 30
0.0
 11
41.9199
 21
11.7051
 31
0.0
  0
LINE
  8
0
 62
     0
 10
41.9199
 20
11.7051
 30
0.0
 11
41.9199
 21
8.60584
 31
0.0
  0
LINE
  8
0
 62
     0
 10
41.9199
 20
8.60584
 30
0.0
 11
42.7193
 21
8.60584
 31
0.0
  0
LINE
  8
0
 62
     0
 10
42.7193
 20
8.60584
 30
0.0
 11
42.7193
 21
7.60539
 31
0.0
  0
LINE
  8
0
 62
     0
 10
42.7193
 20
7.60539
 30
0.0
 11
56.72
 21
7.60539
 31
0.0
  0
LINE
  8
0
 62
     0
 10
56.72
 20
7.60539
 30
0.0
 11
56.72
 21
8.60584
 31
0.0
  0
LINE
  8
0
 62
     0
 10
56.72
 20
8.60584
 30
0.0
 11
57.5194
 21
8.60584
 31
0.0
  0
LINE
  8
0
 62
     0
 10
57.5194
 20
8.60584
 30
0.0
 11
57.5194
 21
11.7051
 31
0.0
  0
LINE
  8
0
 62
     0
 10
57.5194
 20
11.7051
 30
0.0
 11
56.72
 21
11.7051
 31
0.0
  0
LINE
  8
0
 62
     0
 10
56.72
 20
11.7051
 30
0.0
 11
56.72
 21
17.5066
 31
0.0
  0
LINE
  8
0
 62
     0
 10
56.72
 20
17.5066
 30
0.0
 11
57.5194
 21
17.5066
 31
0.0
  0
LINE
  8
0
 62
     0
 10
57.5194
 20
17.5066
 30
0.0
 11
57.5194
 21
20.6058
 31
0.0
  0
LINE
  8
0
 62
     0
 10
57.5194
 20
20.6058
 30
0.0
 11
56.72
 21
20.6058
 31
0.0
  0
LINE
  8
0
 62
     0
 10
56.72
 20
20.6058
 30
0.0
 11
56.72
 21
21.6063
 31
0.0
  0
LINE
  8
0
 62
     0
 10
56.72
 20
21.6063
 30
0.0
 11
42.7193
 21
21.6063
 31
0.0
  0
LINE
  8
0
 62
     0
 10
4.6192
 20
40.6562
 30
0.0
 11
4.6192
 21
39.6558
 31
0.0
  0
LINE
  8
0
 62
     0
 10
4.6192
 20
39.6558
 30
0.0
 11
3.81854
 21
39.6558
 31
0.0
  0
LINE
  8
0
 62
     0
 10
3.81854
 20
39.6558
 30
0.0
 11
3.81854
 21
36.5552
 31
0.0
  0
LINE
  8
0
 62
     0
 10
3.81854
 20
36.5552
 30
0.0
 11
4.6192
 21
36.5552
 31
0.0
  0
LINE
  8
0
 62
     0
 10
4.6192
 20
36.5552
 30
0.0
 11
4.6192
 21
30.7551
 31
0.0
  0
LINE
  8
0
 62
     0
 10
4.6192
 20
30.7551
 30
0.0
 11
3.81854
 21
30.7551
 31
0.0
  0
LINE
  8
0
 62
     0
 10
3.81854
 20
30.7551
 30
0.0
 11
3.81854
 21
27.6558
 31
0.0
  0
LINE
  8
0
 62
     0
 10
3.81854
 20
27.6558
 30
0.0
 11
4.6192
 21
27.6558
 31
0.0
  0
LINE
  8
0
 62
     0
 10
4.6192
 20
27.6558
 30
0.0
 11
4.6192
 21
26.6554
 31
0.0
  0
LINE
  8
0
 62
     0
 10
4.6192
 20
26.6554
 30
0.0
 11
18.6201
 21
26.6554
 31
0.0
  0
LINE
  8
0
 62
     0
 10
18.6201
 20
26.6554
 30
0.0
 11
18.6201
 21
27.6558
 31
0.0
  0
LINE
  8
0
 62
     0
 10
18.6201
 20
27.6558
 30
0.0
 11
19.4193
 21
27.6558
 31
0.0
  0
LINE
  8
0
 62
     0
 10
19.4193
 20
27.6558
 30
0.0
 11
19.4193
 21
30.7551
 31
0.0
  0
LINE
  8
0
 62
     0
 10
19.4193
 20
30.7551
 30
0.0
 11
18.6201
 21
30.7551
 31
0.0
  0
LINE
  8
0
 62
     0
 10
18.6201
 20
30.7551
 30
0.0
 11
18.6201
 21
36.5552
 31
0.0
  0
LINE
  8
0
 62
     0
 10
18.6201
 20
36.5552
 30
0.0
 11
19.4193
 21
36.5552
 31
0.0
  0
LINE
  8
0
 62
     0
 10
19.4193
 20
36.5552
 30
0.0
 11
19.4193
 21
39.6558
 31
0.0
  0
LINE
  8
0
 62
     0
 10
19.4193
 20
39.6558
 30
0.0
 11
18.6201
 21
39.6558
 31
0.0
  0
LINE
  8
0
 62
     0
 10
18.6201
 20
39.6558
 30
0.0
 11
18.6201
 21
40.6562
 31
0.0
  0
LINE
  8
0
 62
     0
 10
18.6201
 20
40.6562
 30
0.0
 11
4.6192
 21
40.6562
 31
0.0
  0
LINE
  8
0
 62
     0
 10
23.6692
 20
40.6562
 30
0.0
 11
23.6692
 21
39.6558
 31
0.0
  0
LINE
  8
0
 62
     0
 10
23.6692
 20
39.6558
 30
0.0
 11
22.8699
 21
39.6558
 31
0.0
  0
LINE
  8
0
 62
     0
 10
22.8699
 20
39.6558
 30
0.0
 11
22.8699
 21
36.5552
 31
0.0
  0
LINE
  8
0
 62
     0
 10
22.8699
 20
36.5552
 30
0.0
 11
23.6692
 21
36.5552
 31
0.0
  0
LINE
  8
0
 62
     0
 10
23.6692
 20
36.5552
 30
0.0
 11
23.6692
 21
30.7551
 31
0.0
  0
LINE
  8
0
 62
     0
 10
23.6692
 20
30.7551
 30
0.0
 11
22.8699
 21
30.7551
 31
0.0
  0
LINE
  8
0
 62
     0
 10
22.8699
 20
30.7551
 30
0.0
 11
22.8699
 21
27.6558
 31
0.0
  0
LINE
  8
0
 62
     0
 10
22.8699
 20
27.6558
 30
0.0
 11
23.6692
 21
27.6558
 31
0.0
  0
LINE
  8
0
 62
     0
 10
23.6692
 20
27.6558
 30
0.0
 11
23.6692
 21
26.6554
 31
0.0
  0
LINE
  8
0
 62
     0
 10
23.6692
 20
26.6554
 30
0.0
 11
37.67
 21
26.6554
 31
0.0
  0
LINE
  8
0
 62
     0
 10
37.67
 20
26.6554
 30
0.0
 11
37.67
 21
27.6558
 31
0.0
  0
LINE
  8
0
 62
     0
 10
37.67
 20
27.6558
 30
0.0
 11
38.4694
 21
27.6558
 31
0.0
  0
LINE
  8
0
 62
     0
 10
38.4694
 20
27.6558
 30
0.0
 11
38.4694
 21
30.7551
 31
0.0
  0
LINE
  8
0
 62
     0
 10
38.4694
 20
30.7551
 30
0.0
 11
37.67
 21
30.7551
 31
0.0
  0
LINE
  8
0
 62
     0
 10
37.67
 20
30.7551
 30
0.0
 11
37.67
 21
36.5552
 31
0.0
  0
LINE
  8
0
 62
     0
 10
37.67
 20
36.5552
 30
0.0
 11
38.4694
 21
36.5552
 31
0.0
  0
LINE
  8
0
 62
     0
 10
38.4694
 20
36.5552
 30
0.0
 11
38.4694
 21
39.6558
 31
0.0
  0
LINE
  8
0
 62
     0
 10
38.4694
 20
39.6558
 30
0.0
 11
37.67
 21
39.6558
 31
0.0
  0
LINE
  8
0
 62
     0
 10
37.67
 20
39.6558
 30
0.0
 11
37.67
 21
40.6562
 31
0.0
  0
LINE
  8
0
 62
     0
 10
37.67
 20
40.6562
 30
0.0
 11
23.6692
 21
40.6562
 31
0.0
  0
LINE
  8
0
 62
     0
 10
42.7193
 20
40.6562
 30
0.0
 11
42.7193
 21
39.6558
 31
0.0
  0
LINE
  8
0
 62
     0
 10
42.7193
 20
39.6558
 30
0.0
 11
41.9199
 21
39.6558
 31
0.0
  0
LINE
  8
0
 62
     0
 10
41.9199
 20
39.6558
 30
0.0
 11
41.9199
 21
36.5552
 31
0.0
  0
LINE
  8
0
 62
     0
 10
41.9199
 20
36.5552
 30
0.0
 11
42.7193
 21
36.5552
 31
0.0
  0
LINE
  8
0
 62
     0
 10
42.7193
 20
36.5552
 30
0.0
 11
42.7193
 21
30.7551
 31
0.0
  0
LINE
  8
0
 62
     0
 10
42.7193
 20
30.7551
 30
0.0
 11
41.9199
 21
30.7551
 31
0.0
  0
LINE
  8
0
 62
     0
 10
41.9199
 20
30.7551
 30
0.0
 11
41.9199
 21
27.6558
 31
0.0
  0
LINE
  8
0
 62
     0
 10
41.9199
 20
27.6558
 30
0.0
 11
42.7193
 21
27.6558
 31
0.0
  0
LINE
  8
0
 62
     0
 10
42.7193
 20
27.6558
 30
0.0
 11
42.7193
 21
26.6554
 31
0.0
  0
LINE
  8
0
 62
     0
 10
42.7193
 20
26.6554
 30
0.0
 11
56.72
 21
26.6554
 31
0.0
  0
LINE
  8
0
 62
     0
 10
56.72
 20
26.6554
 30
0.0
 11
56.72
 21
27.6558
 31
0.0
  0
LINE
  8
0
 62
     0
 10
56.72
 20
27.6558
 30
0.0
 11
57.5194
 21
27.6558
 31
0.0
  0
LINE
  8
0
 62
     0
 10
57.5194
 20
27.6558
 30
0.0
 11
57.5194
 21
30.7551
 31
0.0
  0
LINE
  8
0
 62
     0
 10
57.5194
 20
30.7551
 30
0.0
 11
56.72
 21
30.7551
 31
0.0
  0
LINE
  8
0
 62
     0
 10
56.72
 20
30.7551
 30
0.0
 11
56.72
 21
36.5552
 31
0.0
  0
LINE
  8
0
 62
     0
 10
56.72
 20
36.5552
 30
0.0
 11
57.5194
 21
36.5552
 31
0.0
  0
LINE
  8
0
 62
     0
 10
57.5194
 20
36.5552
 30
0.0
 11
57.5194
 21
39.6558
 31
0.0
  0
LINE
  8
0
 62
     0
 10
57.5194
 20
39.6558
 30
0.0
 11
56.72
 21
39.6558
 31
0.0
  0
LINE
  8
0
 62
     0
 10
56.72
 20
39.6558
 30
0.0
 11
56.72
 21
40.6562
 31
0.0
  0
LINE
  8
0
 62
     0
 10
56.72
 20
40.6562
 30
0.0
 11
42.7193
 21
40.6562
 31
0.0
  0
LINE
  8
0
 62
     0
 10
4.6192
 20
59.7062
 30
0.0
 11
4.6192
 21
58.7058
 31
0.0
  0
LINE
  8
0
 62
     0
 10
4.6192
 20
58.7058
 30
0.0
 11
3.81854
 21
58.7058
 31
0.0
  0
LINE
  8
0
 62
     0
 10
3.81854
 20
58.7058
 30
0.0
 11
3.81854
 21
55.6052
 31
0.0
  0
LINE
  8
0
 62
     0
 10
3.81854
 20
55.6052
 30
0.0
 11
4.6192
 21
55.6052
 31
0.0
  0
LINE
  8
0
 62
     0
 10
4.6192
 20
55.6052
 30
0.0
 11
4.6192
 21
49.8052
 31
0.0
  0
LINE
  8
0
 62
     0
 10
4.6192
 20
49.8052
 30
0.0
 11
3.81854
 21
49.8052
 31
0.0
  0
LINE
  8
0
 62
     0
 10
3.81854
 20
49.8052
 30
0.0
 11
3.81854
 21
46.706
 31
0.0
  0
LINE
  8
0
 62
     0
 10
3.81854
 20
46.706
 30
0.0
 11
4.6192
 21
46.706
 31
0.0
  0
LINE
  8
0
 62
     0
 10
4.6192
 20
46.706
 30
0.0
 11
4.6192
 21
45.7055
 31
0.0
  0
LINE
  8
0
 62
     0
 10
4.6192
 20
45.7055
 30
0.0
 11
18.6201
 21
45.7055
 31
0.0
  0
LINE
  8
0
 62
     0
 10
18.6201
 20
45.7055
 30
0.0
 11
18.6201
 21
46.706
 31
0.0
  0
LINE
  8
0
 62
     0
 10
18.6201
 20
46.706
 30
0.0
 11
19.4193
 21
46.706
 31
0.0
  0
LINE
  8
0
 62
     0
 10
19.4193
 20
46.706
 30
0.0
 11
19.4193
 21
49.8052
 31
0.0
  0
LINE
  8
0
 62
     0
 10
19.4193
 20
49.8052
 30
0.0
 11
18.6201
 21
49.8052
 31
0.0
  0
LINE
  8
0
 62
     0
 10
18.6201
 20
49.8052
 30
0.0
 11
18.6201
 21
55.6052
 31
0.0
  0
LINE
  8
0
 62
     0
 10
18.6201
 20
55.6052
 30
0.0
 11
19.4193
 21
55.6052
 31
0.0
  0
LINE
  8
0
 62
     0
 10
19.4193
 20
55.6052
 30
0.0
 11
19.4193
 21
58.7058
 31
0.0
  0
LINE
  8
0
 62
     0
 10
19.4193
 20
58.7058
 30
0.0
 11
18.6201
 21
58.7058
 31
0.0
  0
LINE
  8
0
 62
     0
 10
18.6201
 20
58.7058
 30
0.0
 11
18.6201
 21
59.7062
 31
0.0
  0
LINE
  8
0
 62
     0
 10
18.6201
 20
59.7062
 30
0.0
 11
4.6192
 21
59.7062
 31
0.0
  0
LINE
  8
0
 62
     0
 10
23.6692
 20
59.7062
 30
0.0
 11
23.6692
 21
58.7058
 31
0.0
  0
LINE
  8
0
 62
     0
 10
23.6692
 20
58.7058
 30
0.0
 11
22.8699
 21
58.7058
 31
0.0
  0
LINE
  8
0
 62
     0
 10
22.8699
 20
58.7058
 30
0.0
 11
22.8699
 21
55.6052
 31
0.0
  0
LINE
  8
0
 62
     0
 10
22.8699
 20
55.6052
 30
0.0
 11
23.6692
 21
55.6052
 31
0.0
  0
LINE
  8
0
 62
     0
 10
23.6692
 20
55.6052
 30
0.0
 11
23.6692
 21
49.8052
 31
0.0
  0
LINE
  8
0
 62
     0
 10
23.6692
 20
49.8052
 30
0.0
 11
22.8699
 21
49.8052
 31
0.0
  0
LINE
  8
0
 62
     0
 10
22.8699
 20
49.8052
 30
0.0
 11
22.8699
 21
46.706
 31
0.0
  0
LINE
  8
0
 62
     0
 10
22.8699
 20
46.706
 30
0.0
 11
23.6692
 21
46.706
 31
0.0
  0
LINE
  8
0
 62
     0
 10
23.6692
 20
46.706
 30
0.0
 11
23.6692
 21
45.7055
 31
0.0
  0
LINE
  8
0
 62
     0
 10
23.6692
 20
45.7055
 30
0.0
 11
37.67
 21
45.7055
 31
0.0
  0
LINE
  8
0
 62
     0
 10
37.67
 20
45.7055
 30
0.0
 11
37.67
 21
46.706
 31
0.0
  0
LINE
  8
0
 62
     0
 10
37.67
 20
46.706
 30
0.0
 11
38.4694
 21
46.706
 31
0.0
  0
LINE
  8
0
 62
     0
 10
38.4694
 20
46.706
 30
0.0
 11
38.4694
 21
49.8052
 31
0.0
  0
LINE
  8
0
 62
     0
 10
38.4694
 20
49.8052
 30
0.0
 11
37.67
 21
49.8052
 31
0.0
  0
LINE
  8
0
 62
     0
 10
37.67
 20
49.8052
 30
0.0
 11
37.67
 21
55.6052
 31
0.0
  0
LINE
  8
0
 62
     0
 10
37.67
 20
55.6052
 30
0.0
 11
38.4694
 21
55.6052
 31
0.0
  0
LINE
  8
0
 62
     0
 10
38.4694
 20
55.6052
 30
0.0
 11
38.4694
 21
58.7058
 31
0.0
  0
LINE
  8
0
 62
     0
 10
38.4694
 20
58.7058
 30
0.0
 11
37.67
 21
58.7058
 31
0.0
  0
LINE
  8
0
 62
     0
 10
37.67
 20
58.7058
 30
0.0
 11
37.67
 21
59.7062
 31
0.0
  0
LINE
  8
0
 62
     0
 10
37.67
 20
59.7062
 30
0.0
 11
23.6692
 21
59.7062
 31
0.0
  0
LINE
  8
0
 62
     0
 10
42.7193
 20
59.7062
 30
0.0
 11
42.7193
 21
58.7058
 31
0.0
  0
LINE
  8
0
 62
     0
 10
42.7193
 20
58.7058
 30
0.0
 11
41.9199
 21
58.7058
 31
0.0
  0
LINE
  8
0
 62
     0
 10
41.9199
 20
58.7058
 30
0.0
 11
41.9199
 21
55.6052
 31
0.0
  0
LINE
  8
0
 62
     0
 10
41.9199
 20
55.6052
 30
0.0
 11
42.7193
 21
55.6052
 31
0.0
  0
LINE
  8
0
 62
     0
 10
42.7193
 20
55.6052
 30
0.0
 11
42.7193
 21
49.8052
 31
0.0
  0
LINE
  8
0
 62
     0
 10
42.7193
 20
49.8052
 30
0.0
 11
41.9199
 21
49.8052
 31
0.0
  0
LINE
  8
0
 62
     0
 10
41.9199
 20
49.8052
 30
0.0
 11
41.9199
 21
46.706
 31
0.0
  0
LINE
  8
0
 62
     0
 10
41.9199
 20
46.706
 30
0.0
 11
42.7193
 21
46.706
 31
0.0
  0
LINE
  8
0
 62
     0
 10
42.7193
 20
46.706
 30
0.0
 11
42.7193
 21
45.7055
 31
0.0
  0
LINE
  8
0
 62
     0
 10
42.7193
 20
45.7055
 30
0.0
 11
56.72
 21
45.7055
 31
0.0
  0
LINE
  8
0
 62
     0
 10
56.72
 20
45.7055
 30
0.0
 11
56.72
 21
46.706
 31
0.0
  0
LINE
  8
0
 62
     0
 10
56.72
 20
46.706
 30
0.0
 11
57.5194
 21
46.706
 31
0.0
  0
LINE
  8
0
 62
     0
 10
57.5194
 20
46.706
 30
0.0
 11
57.5194
 21
49.8052
 31
0.0
  0
LINE
  8
0
 62
     0
 10
57.5194
 20
49.8052
 30
0.0
 11
56.72
 21
49.8052
 31
0.0
  0
LINE
  8
0
 62
     0
 10
56.72
 20
49.8052
 30
0.0
 11
56.72
 21
55.6052
 31
0.0
  0
LINE
  8
0
 62
     0
 10
56.72
 20
55.6052
 30
0.0
 11
57.5194
 21
55.6052
 31
0.0
  0
LINE
  8
0
 62
     0
 10
57.5194
 20
55.6052
 30
0.0
 11
57.5194
 21
58.7058
 31
0.0
  0
LINE
  8
0
 62
     0
 10
57.5194
 20
58.7058
 30
0.0
 11
56.72
 21
58.7058
 31
0.0
  0
LINE
  8
0
 62
     0
 10
56.72
 20
58.7058
 30
0.0
 11
56.72
 21
59.7062
 31
0.0
  0
LINE
  8
0
 62
     0
 10
56.72
 20
59.7062
 30
0.0
 11
42.7193
 21
59.7062
 31
0.0
  0
LINE
  8
0
 62
     0
 10
4.6192
 20
78.7562
 30
0.0
 11
4.6192
 21
77.7572
 31
0.0
  0
LINE
  8
0
 62
     0
 10
4.6192
 20
77.7572
 30
0.0
 11
3.81854
 21
77.7572
 31
0.0
  0
LINE
  8
0
 62
     0
 10
3.81854
 20
77.7572
 30
0.0
 11
3.81854
 21
74.6552
 31
0.0
  0
LINE
  8
0
 62
     0
 10
3.81854
 20
74.6552
 30
0.0
 11
4.6192
 21
74.6552
 31
0.0
  0
LINE
  8
0
 62
     0
 10
4.6192
 20
74.6552
 30
0.0
 11
4.6192
 21
68.8566
 31
0.0
  0
LINE
  8
0
 62
     0
 10
4.6192
 20
68.8566
 30
0.0
 11
3.81854
 21
68.8566
 31
0.0
  0
LINE
  8
0
 62
     0
 10
3.81854
 20
68.8566
 30
0.0
 11
3.81854
 21
65.756
 31
0.0
  0
LINE
  8
0
 62
     0
 10
3.81854
 20
65.756
 30
0.0
 11
4.6192
 21
65.756
 31
0.0
  0
LINE
  8
0
 62
     0
 10
4.6192
 20
65.756
 30
0.0
 11
4.6192
 21
64.7555
 31
0.0
  0
LINE
  8
0
 62
     0
 10
4.6192
 20
64.7555
 30
0.0
 11
18.6201
 21
64.7555
 31
0.0
  0
LINE
  8
0
 62
     0
 10
18.6201
 20
64.7555
 30
0.0
 11
18.6201
 21
65.756
 31
0.0
  0
LINE
  8
0
 62
     0
 10
18.6201
 20
65.756
 30
0.0
 11
19.4193
 21
65.756
 31
0.0
  0
LINE
  8
0
 62
     0
 10
19.4193
 20
65.756
 30
0.0
 11
19.4193
 21
68.8566
 31
0.0
  0
LINE
  8
0
 62
     0
 10
19.4193
 20
68.8566
 30
0.0
 11
18.6201
 21
68.8566
 31
0.0
  0
LINE
  8
0
 62
     0
 10
18.6201
 20
68.8566
 30
0.0
 11
18.6201
 21
74.6552
 31
0.0
  0
LINE
  8
0
 62
     0
 10
18.6201
 20
74.6552
 30
0.0
 11
19.4193
 21
74.6552
 31
0.0
  0
LINE
  8
0
 62
     0
 10
19.4193
 20
74.6552
 30
0.0
 11
19.4193
 21
77.7572
 31
0.0
  0
LINE
  8
0
 62
     0
 10
19.4193
 20
77.7572
 30
0.0
 11
18.6201
 21
77.7572
 31
0.0
  0
LINE
  8
0
 62
     0
 10
18.6201
 20
77.7572
 30
0.0
 11
18.6201
 21
78.7562
 31
0.0
  0
LINE
  8
0
 62
     0
 10
18.6201
 20
78.7562
 30
0.0
 11
4.6192
 21
78.7562
 31
0.0
  0
LINE
  8
0
 62
     0
 10
23.6692
 20
78.7562
 30
0.0
 11
23.6692
 21
77.7572
 31
0.0
  0
LINE
  8
0
 62
     0
 10
23.6692
 20
77.7572
 30
0.0
 11
22.8699
 21
77.7572
 31
0.0
  0
LINE
  8
0
 62
     0
 10
22.8699
 20
77.7572
 30
0.0
 11
22.8699
 21
74.6552
 31
0.0
  0
LINE
  8
0
 62
     0
 10
22.8699
 20
74.6552
 30
0.0
 11
23.6692
 21
74.6552
 31
0.0
  0
LINE
  8
0
 62
     0
 10
23.6692
 20
74.6552
 30
0.0
 11
23.6692
 21
68.8566
 31
0.0
  0
LINE
  8
0
 62
     0
 10
23.6692
 20
68.8566
 30
0.0
 11
22.8699
 21
68.8566
 31
0.0
  0
LINE
  8
0
 62
     0
 10
22.8699
 20
68.8566
 30
0.0
 11
22.8699
 21
65.756
 31
0.0
  0
LINE
  8
0
 62
     0
 10
22.8699
 20
65.756
 30
0.0
 11
23.6692
 21
65.756
 31
0.0
  0
LINE
  8
0
 62
     0
 10
23.6692
 20
65.756
 30
0.0
 11
23.6692
 21
64.7555
 31
0.0
  0
LINE
  8
0
 62
     0
 10
23.6692
 20
64.7555
 30
0.0
 11
37.67
 21
64.7555
 31
0.0
  0
LINE
  8
0
 62
     0
 10
37.67
 20
64.7555
 30
0.0
 11
37.67
 21
65.756
 31
0.0
  0
LINE
  8
0
 62
     0
 10
37.67
 20
65.756
 30
0.0
 11
38.4694
 21
65.756
 31
0.0
  0
LINE
  8
0
 62
     0
 10
38.4694
 20
65.756
 30
0.0
 11
38.4694
 21
68.8566
 31
0.0
  0
LINE
  8
0
 62
     0
 10
38.4694
 20
68.8566
 30
0.0
 11
37.67
 21
68.8566
 31
0.0
  0
LINE
  8
0
 62
     0
 10
37.67
 20
68.8566
 30
0.0
 11
37.67
 21
74.6552
 31
0.0
  0
LINE
  8
0
 62
     0
 10
37.67
 20
74.6552
 30
0.0
 11
38.4694
 21
74.6552
 31
0.0
  0
LINE
  8
0
 62
     0
 10
38.4694
 20
74.6552
 30
0.0
 11
38.4694
 21
77.7572
 31
0.0
  0
LINE
  8
0
 62
     0
 10
38.4694
 20
77.7572
 30
0.0
 11
37.67
 21
77.7572
 31
0.0
  0
LINE
  8
0
 62
     0
 10
37.67
 20
77.7572
 30
0.0
 11
37.67
 21
78.7562
 31
0.0
  0
LINE
  8
0
 62
     0
 10
37.67
 20
78.7562
 30
0.0
 11
23.6692
 21
78.7562
 31
0.0
  0
LINE
  8
0
 62
     0
 10
42.7193
 20
78.7562
 30
0.0
 11
42.7193
 21
77.7572
 31
0.0
  0
LINE
  8
0
 62
     0
 10
42.7193
 20
77.7572
 30
0.0
 11
41.9199
 21
77.7572
 31
0.0
  0
LINE
  8
0
 62
     0
 10
41.9199
 20
77.7572
 30
0.0
 11
41.9199
 21
74.6552
 31
0.0
  0
LINE
  8
0
 62
     0
 10
41.9199
 20
74.6552
 30
0.0
 11
42.7193
 21
74.6552
 31
0.0
  0
LINE
  8
0
 62
     0
 10
42.7193
 20
74.6552
 30
0.0
 11
42.7193
 21
68.8566
 31
0.0
  0
LINE
  8
0
 62
     0
 10
42.7193
 20
68.8566
 30
0.0
 11
41.9199
 21
68.8566
 31
0.0
  0
LINE
  8
0
 62
     0
 10
41.9199
 20
68.8566
 30
0.0
 11
41.9199
 21
65.756
 31
0.0
  0
LINE
  8
0
 62
     0
 10
41.9199
 20
65.756
 30
0.0
 11
42.7193
 21
65.756
 31
0.0
  0
LINE
  8
0
 62
     0
 10
42.7193
 20
65.756
 30
0.0
 11
42.7193
 21
64.7555
 31
0.0
  0
LINE
  8
0
 62
     0
 10
42.7193
 20
64.7555
 30
0.0
 11
56.72
 21
64.7555
 31
0.0
  0
LINE
  8
0
 62
     0
 10
56.72
 20
64.7555
 30
0.0
 11
56.72
 21
65.756
 31
0.0
  0
LINE
  8
0
 62
     0
 10
56.72
 20
65.756
 30
0.0
 11
57.5194
 21
65.756
 31
0.0
  0
LINE
  8
0
 62
     0
 10
57.5194
 20
65.756
 30
0.0
 11
57.5194
 21
68.8566
 31
0.0
  0
LINE
  8
0
 62
     0
 10
57.5194
 20
68.8566
 30
0.0
 11
56.72
 21
68.8566
 31
0.0
  0
LINE
  8
0
 62
     0
 10
56.72
 20
68.8566
 30
0.0
 11
56.72
 21
74.6552
 31
0.0
  0
LINE
  8
0
 62
     0
 10
56.72
 20
74.6552
 30
0.0
 11
57.5194
 21
74.6552
 31
0.0
  0
LINE
  8
0
 62
     0
 10
57.5194
 20
74.6552
 30
0.0
 11
57.5194
 21
77.7572
 31
0.0
  0
LINE
  8
0
 62
     0
 10
57.5194
 20
77.7572
 30
0.0
 11
56.72
 21
77.7572
 31
0.0
  0
LINE
  8
0
 62
     0
 10
56.72
 20
77.7572
 30
0.0
 11
56.72
 21
78.7562
 31
0.0
  0
LINE
  8
0
 62
     0
 10
56.72
 20
78.7562
 30
0.0
 11
42.7193
 21
78.7562
 31
0.0
  0
LINE
  8
0
 62
     0
 10
2.57831
 20
83.8288
 30
0.0
 11
2.56453
 21
83.8218
 31
0.0
  0
LINE
  8
0
 62
     0
 10
2.56453
 20
83.8218
 30
0.0
 11
2.5535
 21
83.8108
 31
0.0
  0
LINE
  8
0
 62
     0
 10
2.5535
 20
83.8108
 30
0.0
 11
2.54661
 21
83.7971
 31
0.0
  0
LINE
  8
0
 62
     0
 10
2.54661
 20
83.7971
 30
0.0
 11
2.54524
 21
83.7805
 31
0.0
  0
LINE
  8
0
 62
     0
 10
2.54524
 20
83.7805
 30
0.0
 11
2.54661
 21
83.7653
 31
0.0
  0
LINE
  8
0
 62
     0
 10
2.54661
 20
83.7653
 30
0.0
 11
2.5535
 21
83.7516
 31
0.0
  0
LINE
  8
0
 62
     0
 10
2.5535
 20
83.7516
 30
0.0
 11
2.56453
 21
83.7406
 31
0.0
  0
LINE
  8
0
 62
     0
 10
2.56453
 20
83.7406
 30
0.0
 11
2.57831
 21
83.7336
 31
0.0
  0
LINE
  8
0
 62
     0
 10
2.57831
 20
83.7336
 30
0.0
 11
2.59485
 21
83.7311
 31
0.0
  0
LINE
  8
0
 62
     0
 10
2.59485
 20
83.7311
 30
0.0
 11
2.61001
 21
83.7336
 31
0.0
  0
LINE
  8
0
 62
     0
 10
2.61001
 20
83.7336
 30
0.0
 11
2.62378
 21
83.7406
 31
0.0
  0
LINE
  8
0
 62
     0
 10
2.62378
 20
83.7406
 30
0.0
 11
2.63481
 21
83.7516
 31
0.0
  0
LINE
  8
0
 62
     0
 10
2.63481
 20
83.7516
 30
0.0
 11
2.6417
 21
83.7653
 31
0.0
  0
LINE
  8
0
 62
     0
 10
2.6417
 20
83.7653
 30
0.0
 11
2.64445
 21
83.7805
 31
0.0
  0
LINE
  8
0
 62
     0
 10
2.64445
 20
83.7805
 30
0.0
 11
2.6417
 21
83.7971
 31
0.0
  0
LINE
  8
0
 62
     0
 10
2.6417
 20
83.7971
 30
0.0
 11
2.63481
 21
83.8108
 31
0.0
  0
LINE
  8
0
 62
     0
 10
2.63481
 20
83.8108
 30
0.0
 11
2.62378
 21
83.8218
 31
0.0
  0
LINE
  8
0
 62
     0
 10
2.62378
 20
83.8218
 30
0.0
 11
2.61001
 21
83.8288
 31
0.0
  0
LINE
  8
0
 62
     0
 10
2.61001
 20
83.8288
 30
0.0
 11
2.59485
 21
83.8302
 31
0.0
  0
LINE
  8
0
 62
     0
 10
2.59485
 20
83.8302
 30
0.0
 11
2.57831
 21
83.8288
 31
0.0
  0
LINE
  8
0
 62
     0
 10
58.7294
 20
83.8288
 30
0.0
 11
58.7156
 21
83.8218
 31
0.0
  0
LINE
  8
0
 62
     0
 10
58.7156
 20
83.8218
 30
0.0
 11
58.7043
 21
83.8108
 31
0.0
  0
LINE
  8
0
 62
     0
 10
58.7043
 20
83.8108
 30
0.0
 11
58.6976
 21
83.7971
 31
0.0
  0
LINE
  8
0
 62
     0
 10
58.6976
 20
83.7971
 30
0.0
 11
58.6962
 21
83.7805
 31
0.0
  0
LINE
  8
0
 62
     0
 10
58.6962
 20
83.7805
 30
0.0
 11
58.6976
 21
83.7653
 31
0.0
  0
LINE
  8
0
 62
     0
 10
58.6976
 20
83.7653
 30
0.0
 11
58.7043
 21
83.7516
 31
0.0
  0
LINE
  8
0
 62
     0
 10
58.7043
 20
83.7516
 30
0.0
 11
58.7156
 21
83.7406
 31
0.0
  0
LINE
  8
0
 62
     0
 10
58.7156
 20
83.7406
 30
0.0
 11
58.7294
 21
83.7336
 31
0.0
  0
LINE
  8
0
 62
     0
 10
58.7294
 20
83.7336
 30
0.0
 11
58.7446
 21
83.7311
 31
0.0
  0
LINE
  8
0
 62
     0
 10
58.7446
 20
83.7311
 30
0.0
 11
58.7608
 21
83.7336
 31
0.0
  0
LINE
  8
0
 62
     0
 10
58.7608
 20
83.7336
 30
0.0
 11
58.7745
 21
83.7406
 31
0.0
  0
LINE
  8
0
 62
     0
 10
58.7745
 20
83.7406
 30
0.0
 11
58.7858
 21
83.7516
 31
0.0
  0
LINE
  8
0
 62
     0
 10
58.7858
 20
83.7516
 30
0.0
 11
58.7925
 21
83.7653
 31
0.0
  0
LINE
  8
0
 62
     0
 10
58.7925
 20
83.7653
 30
0.0
 11
58.7954
 21
83.7805
 31
0.0
  0
LINE
  8
0
 62
     0
 10
58.7954
 20
83.7805
 30
0.0
 11
58.7925
 21
83.7971
 31
0.0
  0
LINE
  8
0
 62
     0
 10
58.7925
 20
83.7971
 30
0.0
 11
58.7858
 21
83.8108
 31
0.0
  0
LINE
  8
0
 62
     0
 10
58.7858
 20
83.8108
 30
0.0
 11
58.7745
 21
83.8218
 31
0.0
  0
LINE
  8
0
 62
     0
 10
58.7745
 20
83.8218
 30
0.0
 11
58.7608
 21
83.8288
 31
0.0
  0
LINE
  8
0
 62
     0
 10
58.7608
 20
83.8288
 30
0.0
 11
58.7446
 21
83.8302
 31
0.0
  0
LINE
  8
0
 62
     0
 10
58.7446
 20
83.8302
 30
0.0
 11
58.7294
 21
83.8288
 31
0.0
  0
ENDSEC
  0
EOF
