%
M48
M72
T01C0.01378
T02C0.03150
T03C0.03543
T04C0.03937
T05C0.04000
T06C0.05118
T07C0.06693
T08C0.07480
T09C0.15748
%
T01
X12923Y12529
X76227Y102726
X99627Y105126
X120027Y77526
X149427Y88926
X162027Y99726
X159627Y109926
X166827Y111726
X166827Y115326
X169227Y120126
X171027Y125526
X166227Y126726
X151827Y125526
X176427Y105726
X181827Y93726
X180027Y81126
X180027Y77526
X177627Y73926
X172827Y73926
X163227Y43326
X217827Y24126
X209427Y144126
X135627Y167526
X97827Y139326
X150627Y277926
X229458Y303867
X12923Y303867
T02
X15167Y285364
X15167Y247411
X15167Y210364
X15167Y172411
X15167Y135364
X15167Y97411
X15167Y60364
X15167Y22411
X90167Y22411
X90167Y60364
X90167Y97411
X90167Y135364
X90167Y172411
X90167Y210364
X90167Y247411
X90167Y285364
X164104Y283789
X167253Y288513
X170403Y283789
X173552Y288513
X176702Y283789
X169104Y269615
X169104Y231663
X165167Y210364
X165167Y172411
X180009Y129340
X142056Y129340
X142253Y15167
X180206Y15167
T03
X126348Y87332
X96348Y87332
X75167Y71584
X45167Y71584
X45167Y146387
X75167Y146387
X75167Y221190
X45167Y221190
X45167Y295993
X75167Y295993
X178277Y169261
X178277Y139261
X229458Y143198
X229458Y129891
X229458Y99891
X229458Y173198
T04
X205403Y136387
X195403Y136387
X195403Y61387
X205403Y61387
X130403Y61387
X120403Y61387
X120403Y136387
X130403Y136387
X130403Y211387
X120403Y211387
X120403Y286387
X130403Y286387
X195403Y286387
X205403Y286387
X205403Y211387
X195403Y211387
X55403Y211387
X45403Y211387
X45403Y286387
X55403Y286387
X55403Y136387
X45403Y136387
X45403Y61387
X55403Y61387
T05
X204847Y70558
X204847Y88358
X230447Y88358
X230447Y70558
X147096Y295993
X137096Y295993
X127096Y295993
X115285Y295993
X105285Y295993
X95285Y295993
X85285Y295993
T06
X65403Y256387
X60245Y250639
X40560Y248671
X40403Y246387
X65403Y181387
X60245Y175639
X40560Y173671
X40403Y171387
X65403Y106387
X60245Y100639
X40560Y98671
X40403Y96387
X65403Y31387
X60245Y25639
X40560Y23671
X40403Y21387
X115403Y21387
X115560Y23671
X135245Y25639
X140403Y31387
X190560Y23671
X190403Y21387
X210245Y25639
X215403Y31387
X190403Y96387
X190560Y98671
X210245Y100639
X215403Y106387
X190403Y171387
X190560Y173671
X210245Y175639
X215403Y181387
X190403Y246387
X190560Y248671
X210245Y250639
X215403Y256387
X140403Y256387
X135245Y250639
X115560Y248671
X115403Y246387
X140403Y181387
X135245Y175639
X115560Y173671
X115403Y171387
X140403Y106387
X135245Y100639
X115560Y98671
X115403Y96387
T07
X105403Y116387
X70403Y116387
X30403Y116387
X30403Y191387
X70403Y191387
X105403Y191387
X145403Y191387
X180403Y191387
X220403Y191387
X220403Y116387
X180403Y116387
X145403Y116387
X145403Y41387
X180403Y41387
X220403Y41387
X105403Y41387
X70403Y41387
X30403Y41387
X30403Y266387
X70403Y266387
X105403Y266387
X145403Y266387
X180403Y266387
X220403Y266387
T08
X184773Y303867
X156033Y303867
T09
X125403Y266387
X125403Y191387
X125403Y116387
X125403Y41387
X50403Y41387
X50403Y116387
X50403Y191387
X50403Y266387
X200403Y266387
X200403Y191387
X200403Y116387
X200403Y41387
M30
